<?xml version="1.0" encoding="utf-8"?>
<!-- Generator: Adobe Illustrator 25.2.3, SVG Export Plug-In . SVG Version: 6.00 Build 0)  -->
<svg version="1.1" id="Layer_1" xmlns="http://www.w3.org/2000/svg" xmlns:xlink="http://www.w3.org/1999/xlink" x="0px" y="0px"
	 viewBox="0 0 575.1 575.1" style="enable-background:new 0 0 575.1 575.1;" xml:space="preserve">
<style type="text/css">
	.st0{opacity:0.15;}
	.st1{fill-rule:evenodd;clip-rule:evenodd;fill:#FFFFFF;}
	.st2{fill:#014D7C;}
	.st3{fill:#38383A;}
	.st4{fill-rule:evenodd;clip-rule:evenodd;fill:#38383A;}
	.st5{fill:#A52332;}
	.st6{fill-rule:evenodd;clip-rule:evenodd;fill:#A52332;}
</style>
<circle class="st0" cx="287.6" cy="287.6" r="287.6"/>
<g>
	<path id="British_Colombia_1_" class="st1" d="M206.9,322l0.2-0.4l0.1-0.3l-0.1-0.4l-0.8-2.6l-0.1-0.8l-0.1-0.4l-0.4-0.4l-0.1-0.4
		l-0.2-0.8l-0.7-1.4l-0.3,0l-0.2,0.3l0,0.6l-0.4,0.3l-0.2,0.3l0,0.3l0.1,0.5l-0.2,0.1l0.2,0.5l0.5,0.8l0.1,0.4l-0.1-0.1l-0.1-0.1
		l-0.1,0l-0.2,0l0.1,1.6l0.2,0.7l0.6,0l-0.3,0.6l-0.1,0.6l0.1,0.4l0.4,0.1l-0.1,0.5l0,0.4l0.2,0.3l0.3-0.1l0.2,0l0.1,0.3l-0.1,0.4
		l-0.3,0.4l0.2,0.1l0,0.2l-0.1,0.3l-0.1,0.4l0.7-0.3l0.5-0.5l0.4-0.7l0.4-1L206.9,322 M216,317.3l-0.2,0.2l-0.8,1.4l-0.4,0.5
		l-0.2,0.3l-0.3,0.8l-0.1,0.2l-0.2,0.1l-0.1,0.3l0,0.4l0,0.2l-0.2,0.1l-0.1,0.7l0.1,0l0.3-0.3l0.5-0.4l0.3-0.4l0.7-1.9l0.2,0.3
		l0.2-0.3l0.2-0.5l0.2-0.8l0-0.4l-0.1-0.4L216,317.3 M212.9,334.3l-0.9-0.5l-0.4,0l-0.3,0.3l-0.2,0.4L211,335l-0.1,0.1l-0.1,0.1
		l-0.1,0.1l0,0.1l0.1,0.1l0.1,0l0.2-0.2l0.1,0.2l0,0.3l0,0.1l0.1,0.2l0.1,0.5l0.1,0.1l0.6-0.7l0.1-0.1l0.2-0.4l0.3-0.3l0.4-0.1
		l0.4,0l-0.1-0.5L212.9,334.3 M205,303.8l-0.4-0.2l-0.4,0l-0.4,0.4l-0.3,0.6l0.1,0.3l0.3,0.2l0.1,0.4l-0.2,0.1l-0.1,0.1l-0.1,0.2
		l0.1,0.1l0.4-0.2l0.2,0l-0.1,0.3l-0.1,0.5l0,0.4l0.1,0.4l0.1,0.5l0,0.8l0.1,0.4l0.2,0.2l0,0.1l0.3,0.7l0.2,0.1l0.4,0.1l0.2-0.1
		l0.2-0.5l0.2-0.9l0-0.5l-0.1-0.3l-0.2-0.3l-0.1-0.4l-0.1-1.7l-0.2-0.6l-0.1-0.4l0.1-0.5L205,303.8 M205.6,368.6l-0.2,0.1l-0.2,0.1
		l-0.7,0l-0.1,0.2l0.4,0.3l0.3,0l0.1,0.3l0.4,0.2l0.1,0.2l0.1,0.1l0.2,0l0.2,0l0.2-0.1l0.1-0.2v-0.2l0-0.1l0-0.2l-0.1-0.2l-0.8-0.4
		L205.6,368.6 M212,352.3l-0.1-1l-0.2-0.7l0.3-0.3l0.1-0.5l0-0.5l-0.1-0.7l-0.3,0l-1.5,0.5l-0.8,0.4l-0.6,0.6l-0.2,1l0.1,1.3
		l-0.1,0.4l-0.1,0.6l0,0.6l0.1,0.5l0.2,0.3l0.3,0.2l0.2-0.1l0.2,0l0.2,0.6l0.2,0.4l0,0.2l0,0.2l0,0.2l0.1,0.1l0.2,0l0.4-0.1l0.4-0.2
		l0.3-0.3l0.1-0.5l0-0.6l-0.1-0.5l-0.1-0.3l0.6-0.8L212,352.3 M214,335.8l-0.3-0.1h-0.3l-0.3,0.1l-0.1,0.1l-0.1,0.1l-0.1,0.1
		l-0.3,0.4l-0.1,0.1l-0.3,0.1l-0.4,0.4l-0.3,0.4l0.1,0.5l-0.1,1.2l-0.1,0.2l-0.1,0.2l0,0.1v0.2l0.1,0.1l0.2,0.1l0.2,0l0.2,0l0.1-0.2
		l0.3-0.4l0.1-0.2l0.2-0.1l0.3-0.1l0.1-0.1l0.3-0.5l0.9-2.3l0.2-0.1l-0.2-0.2L214,335.8 M214.4,343.6l0.6-0.9l0.3-0.4l0-0.4l0.2-0.4
		l0.4-0.7l-0.1-0.5l-0.4-0.2l-1.1-0.1l-0.4-0.2l-0.2,0l-0.4,0.1l-0.2,0l-0.3,0.1l-0.5,0.4l-0.9,0.9l-0.3,0.2l-0.1,0.2l0,0.3l0.1,0.5
		l0,0.3l-0.6,0.1l-0.4,0.3l-0.3,0.4l-0.1,0.3l0.2,0.3l0.3,0.2l0.7,0.2h0.1l0.3-0.1l0.1,0v0.2l-0.1,0.1l-0.1,0.1l0,0.1l0,0.6l0,0.2
		l-0.1,0.4l-0.2,0.2l-0.2,0.1l-0.1,0.2l-0.1,0.1l-0.2,0.2l-0.1,0.3l0,0.2h0.4l0.4-0.1l0.3,0l0.1,0.3l0.6-0.1l0.3-0.1l0.2-0.2
		l0.1-0.3l0-0.3l-0.1-0.3l0-0.3l0.2-0.1l-0.1-0.2l1.4-1.4L214.4,343.6 M208,330.9l0.8-0.9l0.6-1.1l0.2-1.1l0.2-0.2l0.1-0.2l0.2-0.5
		l0-0.3l-0.1-0.2l-0.2-0.4l-0.2,0.1l-0.2,0.1l-0.2,0l-0.2,0l0.3-0.2l0.1-0.1l0.1-0.2l-0.7-0.1l-0.4,0l-0.3,0.1l-0.3,0.4l-0.2,0.5
		l-0.1,0.5l-0.1,0.5l0,0.1l-0.1,0.3l0,0.1l0.2,0.3l-0.1,0.3l-0.2,0.5l-0.1,0.3l0,0.4l0.2,0.7l-0.1,0.5L208,330.9 M209.5,324.6
		l-0.2,0.1l-0.2,0.1l-0.1,0l-0.1-0.1l-0.1-0.2l0-0.2l-0.1-0.2l-0.2-0.3l-0.2-0.2l-0.2,0.1l-0.3,0.4l0.2,0.3l0.1,0.4l0.2,0.4l0.4,0
		l0.2,0.2l0.2,0l0.1-0.2l-0.1-0.3l0.3-0.2l0.1,0.2l0,0.3l0.2,0.2l0.2,0.1l0.3,0.5l0.2,0.6l0.4,0.4l0.1,0.3l0.1,0.3l0.3,0.2l0.3,0.1
		l0.3-0.1l0.6-1l0.3-3l0.4-1.4l-0.1-0.4l-0.3,0.2l-0.3,0.5l-0.1,0.5l-0.4,0.2l-2.1-0.7l-0.1,0l-0.1,0.1l-0.1,0.1l0,0.1l0,0.1
		l-0.2,0.3l0,0.2l0.1,0.1l0.2,0.2l0.1,0.1l-0.1,0l-0.1,0.1l0.2,0.4l0.1,0.1l-0.2,0.2L209.5,324.6 M202.3,307.9l0.2-0.1l0.2-0.1
		l0.2-0.1l0.2-0.2l-0.3-0.1l-0.1-0.2l-0.1-0.5l-0.1-0.1l-0.7-0.2l-0.7-0.5l-0.3-0.1l0.1,0.2l0.4,0.3l0.1,0.2l0,0.1l0.2,0.4l0.1,0.1
		h0.2l0.1-0.1l0.1,0l0.1,0.1l0.1,0.2l0,0.2v0.2L202.3,307.9 M200.1,379.7L200.1,379.7L200.1,379.7L200.1,379.7 M220.5,423.2
		l-0.1-0.2l-0.3-0.3l-0.3-0.2l-0.3,0l-0.3,0.2l0,0.3l0.1,0.3l-0.1,0.3l0,0.3l0.4,0.4l0.2,0.1l0.1-0.1l0.2-0.5l0.2-0.2l0.2,0l0.1,0
		l0.1-0.1l-0.1-0.2L220.5,423.2 M212,367.8l0.2,0l0.1,0.1l0.2,0l0.4-0.3l0.2-0.4l-0.2-0.3l-0.2-0.1l-0.7,0l-0.2,0.1l0,0.1l0,0.3
		l0.1,0.2L212,367.8 M257.4,455l-0.2-0.4l0-0.4l0.1-1l-0.1-1.7l0-0.3l0.1-0.1l0.1-0.3l0-0.3v-0.1l0.1-0.3l0-0.2l-0.1-0.2l-0.2-0.2
		l-0.2-0.1l-0.3-0.1l-0.3,0l-0.2,0.1l-0.1,0.3l0.1,0.3l0.3,0.5l-0.8,0.1l-0.1,0.4l-0.3,0.8l0,0.4l-0.9,0.5l-0.4,0.1l0-0.4l0.2-0.2
		l0.2-0.1l0.2-0.2l0.2-0.4l0.1-0.4l-0.1-0.3l-0.1-0.2l0-0.2l0.1-0.4l0.2-0.2l0.2-0.1l0.2-0.3l0-0.2l-0.2-0.6l-0.1-0.2l-0.9-1.1
		l-0.2-0.4l0.1-0.2l0.3,0l0.3,0.1l0.3,0.2l0.2,0.3l0.2,0.2l0.2-0.3l0.2-0.5l0.1-0.3l-0.1-0.1l-0.1,0l-0.2,0l-0.1,0l0-0.1l0.1-0.2
		l0.1-0.2l0.1-0.1l0.3-0.1l-0.1-0.5l-1.4-2.8l-0.1-0.4l-0.1-0.2l-0.6-0.8l-0.5-1.1l0.1-0.2l0.4-0.1l0.1,0.2l0.1,0.4l0.2,0.3l0.3,0
		l0.1-0.2l0-0.3l0-0.4l0.4-0.1l0-0.4l-0.3-0.8l0-0.5l0-0.5l0-0.4l-0.2-0.4l-0.2,0l-0.6-0.4l-0.4,0l-0.2-0.1l-0.2-0.3v-1.1l-0.1-0.4
		l0-0.2l0.3,0l0.1-0.2v-0.2l0-0.2l-0.3-0.4l-0.5-0.3l-1-0.3L251,432l-0.3-0.4l-0.2-0.1l-0.5,0l-0.2-0.1l-0.2-0.2l0.3-0.2l0.6,0.1
		l0.3-0.1l-0.6-1l-0.2-0.2l-0.2,0l-0.3,0.1l-0.2,0l-1.6-1.3l-0.1-0.1l-0.1-0.2l-0.2-0.4l-0.4-0.2l-0.9-0.3l-1.5-0.9l-0.7-0.6
		l-0.5-0.7l0-0.2l-0.1-0.6l-0.1-0.2l-0.3-0.3l-0.1-0.2l-0.3-0.4l-0.8-0.2l-0.3-0.4l0-0.2l0.1-0.5l0-0.2l-0.1-0.2l-0.3-0.2l-0.3-3
		l-0.1-0.3l-0.2-0.5l-0.1-0.2l-0.1-0.2l-0.1-0.1l-0.1-0.2l0.1-0.4l0.1-0.1l1.2,0.8l0.3-0.1l0.2-0.4l0.1-0.5l0-0.4l-3-6.6l0-0.4V408
		l0-0.4l0-0.2l0.2-0.5l0-0.2l-0.3-1l0.2-0.4l-0.3-0.8l0-0.5l-0.2-0.2l-0.4-0.5l-0.2-0.5l0.4,0l-0.1-1.6l0.2-1.6l0-0.4l-0.1-0.4
		l0.2-0.1l0-0.5l-0.2-0.5l-0.3-0.4l-0.7-0.5l-0.5-0.7l-0.3-0.2l-2.5-0.5l-0.2-0.1l-0.4-0.7l-0.7-0.5l-1.5-0.6l-0.3-0.2l-0.8-1.1
		l-1.2-1.3L228,390l-1.3-0.3l-0.3-0.2l-0.6-0.6l-0.4-0.2l-1.6-0.2l-0.3-0.3l-0.1-0.2l-0.4-0.3l-0.2-0.1l-0.1-0.1l-0.1-0.2l-0.1-0.1
		l-0.1,0l-0.1,0.3l-0.1,0.1l-0.4-0.2l-0.3-0.9l-0.3-0.3l-0.3-0.2l-1.1-1.2l-0.3-0.2l-0.5-0.2l-0.1,0l-0.2,0.1l-0.2,0.3l-0.1,0
		l-0.2-0.1l0.1-0.1l0.2-0.2l0.1-0.2l0-0.2l-0.2-0.2l-1.6-0.6l-0.2-0.3l0.1,0l0.2-0.1l0.1-0.1l-0.1-0.1l-0.1-0.1l-0.1-0.1l-0.1,0
		l0.1,0c-0.1,0-0.2-0.1-0.3-0.1l-0.7-0.5l-0.2-0.1l-0.1,0l-0.1,0l-0.1-0.1l0-0.1l0-0.2l0-0.2l0-0.2l-0.2-0.2l-0.9-0.2l-0.3-0.2
		l-0.1-0.2l-0.1-0.2l-0.1-0.3l-0.3-0.4l-1.1-1.1l-0.2-0.4l-0.3-0.6l-0.1-0.6l0.4-0.4l-0.3-0.3l-0.4,0.3l-0.4,0.5l-0.4,0.4l0-0.2
		l0-0.2l-0.1-0.3l0-0.2l0.1-0.2l0.1-0.1l0,0l0-0.4l0-0.3l-0.1-0.2l-0.3-0.1h0l-0.4-0.5l-4.1-3.6l-0.5-0.3l-1.6-0.4l-0.5-0.4
		l-0.3-0.2l-0.4,0l-1.1,0.4l-0.4-0.4l-0.7,0.1l-0.8,0.2l-0.7,0l-0.5-0.3l-0.1,0l-0.4,0.2l0,0.1l-0.3-0.1l-0.4,0l-0.2,0.2l0.1,0.3
		l-0.2,0.4l0,1l-0.1,0.5l0,0.2l0.1,0.3l0.1,0.2l0.1,0.1l0.2,0l0.4,0l0.2,0l0.3,0.2l-0.2,0.1l-0.4,0.1l-0.4-0.1l-0.2,0.1l-0.1,0.3
		l0,0.5l0,0.3l0.1,0.1l0.3,0.1l0.5,0.6l0,0.3l-0.2,0.6v0.5l0,0.2l0,0.2l0.1,0.1l0.1,0.1l0.1,0.2l0.2,0.3l0.1,0.2l0,0.4l0.1,0.2
		l0.2,0.2l0.4,0.3l0.1,0.4l0.1,0.2l0.1,0.2l0.1,0.1l0.3,0l0.1-0.1l0-0.2l0-0.3l0-0.1l-0.1-0.1l0.4-0.3l0.2,0.2l0.2,0.4l0.2,0.3
		l0.7,0.2l0.8,0l0.8-0.2l0.3,0.1l0,0.4l3.1-0.1l0.8,0.2l0.4-0.1l0.1-0.4l-0.2-0.4l-0.3-0.4l-0.7-0.5l-1.7-0.6l-0.2-0.2l-0.3-0.4
		l-0.2-0.5l-0.1-0.4l0.7,0.8l3.1,1.4l0.2,0.2l0.1,0.2l0.1,0.3l0.1,0.1l0.1,0.2l0.1,0.1l0.3-0.1l0.4-0.1l1.6,0.2l-0.3,0.5l-1.3-0.1
		l-0.6,0.5l-0.4-0.2l-0.4,0.5l-0.2,0.7l0.5,1l0.1,0.9l0,1.7l-0.4-0.3l-0.2-0.6l-0.2-1.9l-0.1-0.5l-0.3-0.3l-2.4-0.9l-0.5,0l-0.5,0.1
		l-0.5,0l-0.4-0.4l-0.2,0.3l-0.3-0.1l-0.5-0.4l-0.2,0l-0.2,0.2l-0.1,0.3v0.3l-0.1,0.2l-0.4,0.2l-0.4,0.5l-0.4,0.7l-0.3,0.1l0,0.4
		l0.2,0.5l0.3,0.3l0.2,0l0.4-0.2l0.2,0l0.1,0.2l0.2,0.6l0.1,0.1l0.2,0l0.2,0.1l0.1,0.2l-0.2,0.3l-0.2,0.1l-0.5-0.1l-0.3,0.2l0.2,0.3
		l0.1,0.2l0.1,0.4l0.1,0.1l0.3,0.1h0.4l0.2,0l0.1,0.2l-0.1,0.3l-0.2,0.1l-0.4,0l-1.6,1.1l-1.2,0.5l-0.3,0.3l0,0.5l0.3,0.3l0.7,0.4
		l0,0.1l0.1,0.5l0.1,0.1l0.2,0l0.2-0.1l1.2-0.8l0.8-0.4l0.8-0.2l0.7,0.1l-0.3,0.2l-0.3,0.3l-0.2,0.3l-0.1,0.4l0.2,0.4l0.3,0.1l0.7,0
		l0.6-0.2l0.7-0.5l0.7-0.3l0.5,0.4l-0.8,0.4l-0.4,0.2l-0.3,0.3l1.1,0.4l-0.7,0.1l-0.2,0.2l-0.1,0.5l0,0.4l0.1,0.4l0.4,0.7l0.3,0.3
		l0.3,0.2l0.4,0.1l0.4,0l0.4-0.1l0.3-0.2l0.2-0.3l0.2-0.4l0.1-0.4l0.1-0.5l0.1-0.4l0.2-0.1l0.2,0.2l0.2,0.4l0.1,0.5l0,0.3l0.1,0.2
		l0.4,0.2l0.4,0.1l0.4-0.2l0.4,0l0.1,0l0.2-0.2l0.1-0.2l0.1-0.2l0.2-0.1l0,0.6l-0.3,0.5l-0.4,0.3l-0.7,0l-0.4,0.2l-0.4,0.4l-0.3,0.4
		l-0.1,0.1l0.1,0.1l0,0.1l-0.1,0.2l-0.1,0l-0.1,0L208,396l-0.8,0.6l-0.2,0.3l0,0.4l0.6,2.5l0.2,0.3l0.4,0.1l0.4,0l2,0.7l0.2,0
		l0.2-0.4l0.5-1.2l0.2-0.5l0.1-0.1l0.1-0.2l0.1-0.1v0.4l-0.3,1.8l0.1,0.2l0.2,0.1l0.3,0.1l0.3,0l0.4-0.2l0.4-0.3l0.2-0.3l0-0.4
		l-0.3-0.6l0.1-0.3l0.5,0.7l0.2,0.4l0,0.8l0.1,0.5l0.2,0.5l0.3,0.2l0.4-0.1l0.4-0.2l0.2,0.1l-0.1,0.6l-0.3,1l-0.1,0.4l-0.3,2.3
		l0,0.5l0.2,0.3l0.4,0.2l0.5,0.1l0.5-0.1l0.4-0.3l0.2-0.3l0.3-0.9l0.2-0.2l0.2,0.1l0.3,0.4l0.2,0.2l-0.1,0.2l-1.6,1.1l-0.3,0.4
		l0.1,0.3l0.3,0.4l1.6,1.3l0.2,0.1l0.6-0.2l1.8,0.1l1.3,0.3l0.1,0.1l0.1,0.2l0,0.2l0,0.2h-0.9l-0.2-0.1l-0.3-0.3l-0.2-0.1l-0.2,0
		l-0.4,0.1l-2-0.3l-1.2-0.6l-0.6-0.1l-1,0.4l-0.6,0l-0.3,0.1l-0.3,0.1c-0.1,0.1-0.1,0.2-0.2,0.3l-0.1,0.2l0,0.2l-0.1,0.1l-0.1,0.1
		l0,0.4l0,0.1l0.1,0.1l-0.1,0.2l-0.1,0l0,0.3l-0.1,0.2l-0.1,0.2l-0.1,0.2l-0.2,0.6l0,0.1l-0.3,0.5l-0.2,0.3l-0.1,0.3l0.1,0.5
		l0.1,0.4l0.2,0.3l0.3,0.1l0.4,0l0.5-0.2l0.1-0.2l-0.1-0.4l0-0.6l0.2-0.2l0.3-0.2l0.4-0.2l0.3,0l0.1,0.2l0,0.7l0.1,0.4l-0.3,0.2
		l0.1,0.2l0.2,0.3l0.2,0.3l0.1,0.3l0.1,0.2l0.4,0.4l0,0.1v0.2l0,0.1l0.1,0l0.1-0.1l0.3-0.3l0.4-0.4l0.2-0.4l0.1-0.4l0-0.4l0.3-0.1
		l0.1,0.2l0,0.3l-0.1,0.4l0,0.2l0.2,0.2l0.2,0.2l0.2,0.1l0.1,0l0.1-0.1l0.1-0.1l0.3,0l0.3,0l0.3,0l1.1-0.1l0.1,0l-0.1,0.2l-0.2,0.4
		l-0.1,0.2l-0.4,0.3l-0.2,0.3l-0.1,1l0.1,0.3l0.3,0.4l0.1,0.2l0.4-0.1l0.3-0.2l0.3-0.4l0.2-0.5l0.2-0.3l0.8-0.5l0.3-0.4l0.1,0.5
		l-0.4,0.5l-0.5,0.5l-0.8,1.2l-0.6,0.2l-0.6,0.1l-0.5,0.4l0.1,0.6l0.1,0.4l0.2,0.3l0.3,0.2l0.3-0.1l0.9-0.6l0.4,0l0.2,0.2l0.1,0.3
		l0.1,0l0.2-0.1l0.2-0.2l0.2-0.3l0.4-0.7l0.4-0.4l0.4-0.3l0.3-0.2l0.1,0l-0.1,0.4l-0.2,0.4l-0.3,0.3l-0.2,0.2l-0.1,0.3l-0.4,0.9
		l-0.1,0.2l0.1,0.2l0.2,0.1l0.3-0.1l0.3-0.2l0.2,0l-0.2,0.4l-0.4,0.7l-0.5,1.3l0,0.6l0.5-0.2l0.6-0.4l1.8-0.6L226,425l-0.2,0.2
		l-0.2,0.2l-0.2,0.3l-0.2,0.2l-0.7,0.2l-0.3,0.3l-0.1-0.1l-0.8,0.3l-0.2,0.1l-0.4,0l-0.3-0.1l-0.2-0.3l-0.1-0.4l-0.3,0.1l-0.5-0.1
		l-0.2,0.1l-0.1,0.3l0.1,0.3l0.2,0.2l0.2,0.2l1.5,1l0.3,0.5l0.1,0.3l0.3,0.4l0.3,0.8l0,0.1l0,0.4l0,0.2l0.2,0.3l0.5,0.3l0.2,0.3
		l0.1,0.3l0.2,0.3l0.2,0.2l0.2,0.1v0.1l0.1,0.1l0.3,0.1l0.2,0l0.1-0.1l0.1-0.2l0.1-0.1l0.4-0.1l0.7-0.6l0.7-0.2l0.3-0.4l0.3-0.5
		l0.3-0.3l0.2,0l0.1,0.2l0.1,0.2l0.1,0.1l0.2,0.1l0.6,0.2l-0.1,0.2l-0.4,0l-0.4,0.2l-0.8,0.6l0.3,0.3l0.8,0.3l0.3,0.3l0.3,0.1
		l0.4-0.2l0.7-0.5l0.4,0l0.2,0.2l0.2,0.3l0.4,0.3h0.2l0.4-0.1l0.2,0l0.8,0.4l0.4,0.1l0.8-0.1h0.3l0.4-0.1l0.3-0.4l0.5-1l0.3-0.3
		l0.4-0.3l0.4-0.3l0.3-0.5l0.3-1l0.2-1l0.1-0.2l0.1-0.2l0.1-0.1l0.1-0.1l0.1-0.1l-0.3,1.5l0,1l-0.3,0.4l-0.4,0.3L238,432l-0.5,1
		l-0.8,0.8l-0.8,0.6l-0.7,0.3l-0.8,0l-0.4,0.1l-0.4,0.3l-0.3,0.3l-0.1,0.2v0.2l-0.1,0.4l-0.1,0.2l-0.2,0.1l-0.2,0l-0.4-0.1l-0.2,0
		l-0.2,0.1l-0.2,0.1l-0.2,0.1l-0.3,0.3l-0.1,0.1l-1.2,0.3l-0.4,0.3l0.3,0.5l0.2,0.4l0.3,1.1l0.2,0.3l3.8,3.6l0.2,0.3l0.3,0.8
		l0.5,0.7l0.9,0.9l2.3,1.5c0.1,0.1,0.3,0.2,0.4,0.3l0.4-0.3l0.2-0.1l0.2-0.1l0.2,0l0.5,0.3l0.1,0.2l-0.4,0.1l-0.5,0.2l-0.2,0.3
		l0.3,0.3l0.4,0.2l3.5,3.5l3.4,2.9l0.8,0.4l1,0.3l0.7,0.6l0.4,0.5l0.3,0.3l0.2,0.5l0.2,0.2l0.3,0l0.5-0.1l0.3,0.1l-0.1,0.5l0.4,0.2
		l0.4-0.1l0.1-0.4l0.2-0.2l0.4-0.2l0.2-0.1l0.1-0.2l0.1-0.2l0.1-0.1l0.3,0l0.3-0.2l0.8-0.9l0.4-0.2l1,1.5l0.5,0l0.5-0.1l0.3-0.2
		l0.3-0.6l0.1-0.5l-0.1-0.5L257.4,455 M215.9,381.1l0.6,0l0.4,0.5l1.6,0.7l0.4,0l0.2,0l0.1,0l0.1,0.1l0.1,0.1l0.1,0l0-0.3
		c-0.1-0.3-0.3-0.6-0.4-0.9l-0.1-0.2l-0.7-0.1l-1.6-0.6l-0.5-0.4l-0.5-0.3l-0.3,0l-0.4,0.2l-0.3,0.3l0.3,0.4L215.9,381.1 M230,336
		l0.1-0.6l-0.2-0.3l-0.2-0.1l-0.5,0.3l-0.3,0.1l-1.7-0.1l-0.3,0l-0.3,0.1l-0.2,0.2l-0.3,0.3l-0.3,0.3l-0.4,0.1l-0.3,0.3l-0.2,0
		l-0.3-0.1l-0.2,0l-0.5,0.2l-0.7,0l-1,0.4l-0.6-0.2l-0.6-0.1l-0.7,0.6l-0.3,0l-0.6,0.4l-0.6,0.6l-0.3,0.4l-0.2,0.8l0,0l-0.1,0.1
		l-0.1,0h-0.1l-0.1,0.1l-0.2,0.2l-0.2,0.2l-1.1,1.9l-0.4,0.8l0.1,0.4l0.2,0.1l0.7-0.1l0.3,0l0.8,0.2l0.4,0l0.5-0.1l0.5-0.3l0.1-0.6
		l0.1-0.5l0.4-0.5l1.4-1.5l0.4-0.2l0.4,0l0.1-0.1l0.3-0.5l0.2-0.2l0.2,0l0.4,0.1l0.2,0l0.8-0.2l0.4-0.2l0.3-0.3l0.8-0.2l0.1,0.1
		l0.2,0.2l0.1,0.1l0.1,0l0.2-0.2l0.1,0l1.6-0.2l0.8-0.4l0.8-0.8l-0.3-0.5l0.1-0.5L230,336 M200.8,308.7l0.5-0.4l0.2,0.1l0.1,0.5
		l0.2,0.2l0.2,0l0-0.3l0-0.4l0-0.3l0-0.5l-0.3-0.3l-0.8-0.3l0,0.3l0.1,0.5l-0.2,0.9L200.8,308.7 M213.7,408.7l0.2-0.6l0.1-1.1
		l0.4-1.2l0.1-0.5l0-0.4l0-0.4l0.1-1.3l0-0.7l-0.2-0.1l-0.4,0.1l-0.3-0.3l-0.1-0.4l0-0.4l-0.5-0.1l-1.2,0.3l-1.5,0l-0.4-0.1
		l-0.2,0.1l-0.3,0.3l0.3,0.3l0.1,0.1l0.1,0.1l0.1,0.3l0.1,0.1l0,0.1l0.1,0.3l0.1,0.1h0.1l0.2,0l0.2,0l0.1,0.1l0.1,0.2l-0.2,0.1
		l-0.3,0l-0.5-0.1l-0.2,0.1l-0.2,0.2l-0.2,0.2l-0.1-0.4l-0.1-0.2l-0.2,0l-0.2,0.5l0.6,1.5l0.7,1l0.1,0.4l0.1,0.5l0.2,0.3l1.7,1.6
		l0.7,0.2L213.7,408.7 M201.2,305.7l0.5,0.4l0.5,0l0.1-0.6l-0.2-0.8l-0.2-0.5l-0.2-0.2l-0.4-0.2l-0.4-0.1l-0.3,0l0,0.8l0.2,0.7
		L201.2,305.7 M200.7,288.6l0.1-0.2l0.2-0.2l0.2-0.3l0.1-0.3l-0.1-0.3l-0.5-0.6l-0.2-0.1l-0.2-0.1l-0.1-0.3l0.1-0.4l0.1-0.3l0.2-0.3
		l0.2-0.2l-0.1-0.3l-0.2-0.5l-0.2-0.2l-0.3-0.1l-0.2,0.3l-0.1,0.4l-0.1,0.5l-0.3,0.2l-1.2,0.4l-0.8,0.4l0,0.2l0.2,0.3l0.1,0.2l0,0.3
		l0,0.7l0.1,0.4l0.5,0.4l0.4,0.8l1,0.6l0.6,0.8l0.4,0.1l0.2-0.9l0-0.4l0-0.4l0.2-0.1L200.7,288.6 M207.3,395.8l0.1,0l0.1-0.1l0-0.1
		l-0.1-0.3l-0.2-0.5l-0.3-0.2l-0.3,0l-0.2,0.1l-0.1,0.1l-0.1,0.2l-0.1,0.1l-0.1,0.2l0.1,0.3l0.1,0.2l0.1,0.3l0.2,0.1l0.5-0.4
		L207.3,395.8 M219.4,420.7l0-0.4l0-0.4l0-0.3l0.3-0.5l0-0.7l-0.2-0.6l-0.3-0.5l-0.3-0.1l-1,0l-0.3-0.1l-0.1,0.1l-0.1,0.3l-0.1,0.2
		l-0.3,0.3l0,0.3l0,0.3L217,419l-0.3,0.1l0,0.7l0.5,0.3l0.6,0.2l0.3,0.3l0.6,0.5l0.3,0.1l0.4-0.2L219.4,420.7 M162.4,292l1.3,0.4
		l0.3-0.1l-0.2-0.3l-0.1-0.1l-1.8-1.2l-0.2,0l-0.1,0l0.4,1.2L162.4,292 M200.9,266.8l0-0.1l-0.2,0.1l0-0.2l-0.4,0.1l-0.4,0.1
		l-0.3,0.2l-0.1,0.5l0.2,0.2l0.4,0.2l0.4-0.1l0.2-0.5l0.1-0.1l0.1-0.2l-0.1-0.1v-0.1L200.9,266.8 M214.4,337.3l-0.1,0.3l0,0.4
		l-0.1,0.4v0.4l0.1,0.3l0.2,0.3l0.2,0.2l0.2,0l0.5-0.1l0.7,0.5l0.4,0l0.2-0.2l0.2-0.2l0.2-0.2l0.5-0.3l0.2-0.2l0.4-0.6l-0.2,0
		l-0.1,0.1l-0.1,0.1l-0.1,0l-0.1-0.1l-0.2-0.2l-0.1-0.1l-1.3-0.5l-0.2,0l-0.4,0.2l-0.2,0l-0.4-0.3L214.4,337.3 M200.6,260.1l-0.3,0
		l-0.3,0.1l-0.2,0.2l-0.1,0.2l0,0.2l0,0.2l-0.1,0.1l-0.3,0.2l-0.2,0.3l-0.3,0.2l-0.2,0.2l-0.6,1.3l-0.1,0.2l-0.1,0.2l-0.1,0.2l0,0.2
		l2.3-0.7l0.2-0.2l1-0.4l0.3-0.2l0.2-0.3l0.5-0.7l0-0.1l0-0.1l0.1-0.2l0.1-0.4h-0.3l-0.4,0.2l-0.3,0.1l-0.2-0.2l-0.1-0.3l-0.2-0.2
		l-0.4,0.1l0-0.3L200.6,260.1 M194.8,279.8l-0.1,0.3l0,0.2l0.1,0.1l0.2,0.1l0.2,0.4l0.1,0.1h0.4l0.2-0.3l0.1-0.4l0-0.4l-0.1-0.3
		l-0.2-0.2l-0.1-0.3v-0.4l0.3-0.2l0.3-0.3l0.3-0.3l0.3-0.1l-0.1,0.4l0.1,0.1l0.2-0.1l0.2-0.1l0.2,0l0.1,0.2l0.1,0.5l0.2,1l0.2,0.3
		l0.4,0.3l0.4-0.2l0.4-0.6l0.4-0.6l0.3-0.4l0.3-0.1l0.7,0.2l0.4-0.1l0.2,0l0.1,0.2l-0.2,0.1l-0.1,0.1l0,0.2l0.2,0.1l-0.1,0.2
		l-0.5-0.2l-0.5-0.1l-0.3,0.1l-1.2,1.1l-0.2,0.1l-0.2,0.1l-0.2,0.1l-0.1,0L198,281l-0.1,0.3l-0.1,0.6l0.3,0l0.4-0.2l0.4-0.1l0,0.1
		l-0.1,0.6l0,0.2l0.1,0.1l0.5,0.2l0.2,0l0.2-0.1l0.2-0.2l0.1-0.2l0.2-0.2l0.7-0.5l0.4-0.2l0.8-0.3l0.4-0.3l0.2-0.5l0-0.6l-0.1-0.6
		l-0.1-0.3l-0.1-0.2l-0.2-1.3l-0.5-0.9l-0.4-0.3l-0.4,0.4l-0.3,0l-1-0.2l-0.1,0.3l-1,0.3l-0.3,0l-0.3,0l-0.3,0.2l-0.3,0.3l-0.3,0.2
		l0,0l-0.1-0.1l-0.2-0.1h-0.1l-0.1,0.1l-0.3,0.4l-0.1,0.1l-0.3,0.1l-0.4,0.3l-0.3,0.4l0,0.2l0.1,0.2l-0.2,0.4L194.8,279.8
		 M169.2,298.3l-0.3-0.2l-0.9-0.1l-0.3,0l-0.1,0.4l0.2,0.4l0.4,0.3l0.5,0.2l0.7,0.1l0.4,0l0.2,0l0.3,0l0.1-0.2l-0.1-0.2l-0.2-0.1
		l-0.6-0.2l-0.3-0.2l0,0l0.2,0L169.2,298.3 M166.5,256.9l0.1,0.1l0.2,0.1l0,0.2l-0.1,0.3l0.1,0.2l0.2,0l0.1,0l0.1-0.2l0.2-0.3
		l0.3-0.3l0-0.2l-0.1-0.2l-0.1-0.3l-0.1-0.1L167,256l-0.3-0.1l-0.3,0.2l-0.2,0.3l0,0.2l0.3,0.2L166.5,256.9 M171.7,303.4l0-0.5
		l-0.2-0.1l-0.4,0l-0.5,0.1l-0.3,0.3l-0.2,0l-0.8-0.3H169l0.1-0.4l-0.1-0.2l-0.2-0.1l-0.3,0.1l0.4-0.2l0.9,0.4l0.4,0l-1-0.7
		l-0.6-0.2l-0.5,0.2l-0.1,0.5l0.3,1.2l-0.3,0.4l0.1,1.2l0.1,0.4l0.4,0.1l0.5-0.3l-0.3-0.8l0.3-0.4l0-0.1l0,0l0,0l0-0.1l0.3,0.2
		l0.3,0.8l0.2,0.3l0.3,0.1l0.4,0l0.3-0.1l0-0.4l0.5-0.5l0.2-0.4L171.7,303.4 M171.7,321.1L171.7,321.1l-0.2,0l-0.1,0l-0.1-0.1
		l-0.1-0.3l-0.1-0.1l-0.2-0.4l0.2-0.2l0.1-0.2l-0.1-0.1l-0.2-0.1l-0.2-0.2l-0.2,0l-0.2,0.2l-0.6,0.8l-0.2,0.3l-0.1,0.6l-0.2,0.4
		l-0.1,0.4l0.1,0.3l0.1,0.2l-0.1,0.2l-0.3,0.2l-0.3,0.1l0.2,1l0.2,0.5l0.3,0.3l0-0.4v-0.2l0-0.2l0.6,0.1l0-0.4l-0.1-0.6l0.1-0.4
		l0.2,0.4l0.2,0.3l0.2,0l-0.1-0.5l-0.5-0.7l-0.1-0.4l0.3-0.5l-0.1,0.5l0.1,0.1l0.5,0l0.5,0.3l0.3,0.1l0.3-0.1l0.3-0.4l0-0.3
		L171.7,321.1 M173,292.3l-0.1-0.1l0-0.2l0-0.5v-0.1l-0.2-0.3l-0.8-0.7l0.1-0.2l0.4-0.1l0.2-0.4l0.2-1.5l0-0.1l-0.2-0.1l-0.2,0.1
		l-0.2,0.1l-0.2,0l-0.9-0.4l-0.7,0.1l-0.3,0.2l-0.1,0l-0.1,0l-0.1-0.1l-0.1,0l-1.3,0.4l-0.3,0.2l-0.3,0.1l-2.7-0.9l-0.6-0.5
		l-0.3-0.1l-0.2,0.1l-0.4,0.2l-0.2,0.1l-0.4,0l-1.2-0.5l-0.3-0.3l-0.3-0.4l-0.3-0.3h-0.4l0.1,0.8l0,0.3l-0.3,0l-0.1,0.1l0.1,0.4
		l0.2,0.4l0.2,0.2l-0.4,0.3l-0.1,0.4l0.1,0.3l0.2,0.2l0.3,0l0.3-0.1l0.2,0.1l0,0.4l0.3-0.1l0.6,0.1l0.3,0l-0.1,0.1l-0.2,0.2l1.1,0.4
		l0.5,0.3l0.2,0.7l0.2,0.3l0.8,0.1l0.2,0.2l-0.2,0.2l-0.3,0.2l-0.3,0.1h-0.2l-0.1,0.2l0.1,0.2l0,0.2l0,0.2l-0.1,0.2l-0.5-1.2
		l-0.1,0.3l0,0.2l0.1,0.2l0.1,0.1l-0.3,0.2l-0.2-0.2l-0.3-0.8l-0.1-0.1l-0.2-0.1l-0.2,0l-0.2,0.1l-0.1,0l-0.3-0.3l-0.2,0l-0.2,0.1
		l-0.1,0l-0.1,0.5v0.3l0.1,0.5l0.1,0.4l0.7,0.9l-0.4,0.2l-0.1,0.4l0,0.5l0,0.4l0.1,0.1l0.2,0.2l0.1,0.1v0.1l0,0.2l0,0.1l0.2,0.8
		l0.1,0.2l0.4,0.1l0.6-0.6l0.4-0.1l0.2-0.1l0.1-0.5l0.1-1l0.2,0.3l0,1l0.1,0.5l0.6,0.7l0.2,0.5l-0.2,0.4l-0.1,0.2l0,0.1l0,0.1l0,0.2
		l0,0.2L165,300l-0.1-0.2l-0.1-0.5l-0.3-0.9l-0.3,0.1l0.1,0.3l0.2,1l-0.2,0.1l-0.3-1l-0.1-0.2l-0.3-0.2l-0.3,0l-0.7,0.4l0.5,1.8
		l0.7,1.2l0.1,0.1l-0.2,0.5l0,0.1l0.2,0.1l0.1,0.2l-0.1,0.3l-0.1,0.3l-0.1,0.3l0.1,0.4l1,2.4l0.3,0.4l0.6,0.6l0.2,0.4l-0.1,0.6
		l0,0.1l0.1,0.8l0.1,0.2l0.2,0l0.2-0.1l0.2,0l0.2,0.2l0.2,0.3l0.1,0.4l-0.1,0.5l-0.2-0.3l-0.3-0.3l-0.4-0.1l-0.3,0.3v0.1l-0.2,0.7
		l0,0.1l0.1,0.1l0.2,0l0.3,0l-0.3,0.3l-0.3,0.3l0.1,0.2l0.1,0.1l0.2,0l0.2-0.1l0,0.3l0,0.4l0,0.3l0.3,0.4l0,0.3l0,0.4l0,0.4l0.1,0.6
		l0.2,0.7l0.3,0.2l0.4-0.8l0.1,0l-0.1,0.5l0.1,0.8l-0.1,0.4l-0.1,0.3l-0.1,0.4l0,0.4l0.2,0.3l0.5-0.1l0.3-0.9l0.3-1.9l0.3,0.7
		l0.1,0.4l0,0.3l-0.1,0.3l-0.3,0.8l-0.1,0.4l0.2,0.5l0.5-0.3l0.5-0.8l0.3-0.9l0.2,0.2l-0.1,0.3l-0.1,0.3l0,0.4l0.2,0.2l0.7,0.3
		l0.2,0l0.2-0.1l0.3-0.3l0.3-0.4l0.1-0.4l-0.1-0.3l-0.3-0.1l-0.6,0.1l-0.2-0.4l-0.3-0.3l-0.8-0.4l0.1-0.1l0.5,0l0.5,0.1h0.4l0.4-0.4
		l0-0.4l-0.3-0.4l0-0.3l0-0.3l-0.3-0.2l-0.3-0.1l-0.3,0l-0.6,0.2l-0.1-0.3l-0.1-0.1l-0.1,0l-0.2,0.3l0.1,0.4l0.3,0.6l-0.4-0.2
		l-0.5-1.1l-0.4,0.2l0-0.5l0.2-1l-0.1-0.3l0.3-0.2l0.1,0.1v0.3l-0.1,0.4l0.2-0.1l0.2-0.1l0.4-0.1l0.2,0.1l0.1,0.1l0.2-0.1l0.2-0.4
		l-0.5-0.2l-0.2,0l-0.3,0.1l0.2-0.4l0.3-0.4l0.3-0.2l0.6-0.1l0.3-0.3l0-0.3l-0.7,0l-0.6-0.2l-0.3,0.1l-0.3,0.3l-0.1,0.3l-0.1,0.4
		l-0.2,0.5l-0.1-0.2l-0.2,0l-0.3,0.1l-0.3-0.1l0.5-0.4l0-0.4l-0.3-0.3l-0.4-0.1l0.2-0.3l0.9-1l-0.2-0.4l-0.3-0.4l-0.1-0.4l0.4-0.5
		l-0.7-0.3l-0.2-0.3l0.2-0.4l-0.2-0.3l-0.2,0.1l-0.3,0.2l-0.2,0l-0.1-0.2l0-0.2l0-0.2l-0.1-0.1l-0.3-0.2l-0.1-0.1l-0.1-0.1l0.1-0.2
		l0.3,0l0.4-0.1l0.2-0.2l-0.2-0.2l-0.2-0.3l-0.1-0.9l-0.1-0.4l0.4,0l0.2-0.6l0-0.8l-0.1-0.6l-0.2-0.5l-0.3-0.2l-0.9-0.3l0.2-0.3
		l0.7-0.5l-0.2-0.4l-0.1-0.2l-0.2-0.1l0.3,0l0.2,0.1l0.2,0.2l0.1,0.3l0.6-0.3l0.6,0.1l0.6,0.2l0.5,0.1l0-0.3l-0.1-0.1l-0.5-0.1
		l-1.8-0.8l-0.1-0.1l0-0.8l-0.1-0.1l-0.2,0l-0.1,0l0.1-0.3l0.1-0.1l0.1-0.1l0.1-0.1l0.1-0.1l0.2-0.1l0.1-0.1l0-0.2l0-0.1l-0.1-0.2
		l-0.3-0.4l-0.4,0l-0.5,0.1l-0.5-0.1l0.1-0.2l1.6-0.1l0.1-0.1l-0.2-0.1l-0.2-0.2l-0.1-0.2L167,295l0.1,0h0.1l0.2,0l0.3,0.2l0.2,0.4
		l0.1,0.5l0,0.6l0.1,0.6l0.3,0.2l1.5,0.6l0.4-0.1l0.7-0.4l0.5-0.2l0.2-0.1l0.1-0.1V297l0-0.1l-0.1,0l0.3-0.3l0.1,0l0.3-0.2l0.2-0.2
		l-0.1-0.2l0-0.1l-0.1-0.4l-0.1-0.1l-0.2-0.1l-0.3-0.4l-0.9-0.7l-0.9-1.2l-0.3,0l-0.2,0.1l-0.5,0.1l-0.2,0.1l-0.2,0.1l-0.5,0.6
		l0-0.3l0-0.3l0.1-0.3l0.2-0.4l0-0.2l-0.5-0.4l-0.1-0.3l1.4,0.6l0.3,0.1l0.7,0l0.3,0.1l0.6,0.4l0.2,0.3l0.2,0.3l0.3,0.3l0.7,0.3
		l0.2,0.3l0.1,0.2l0.1,0.2l0.2,0.1l0.2,0l0.2-0.1l0-0.1l-0.1-0.1l0-0.2l0.2-1.2l0-0.3l-0.1-0.2L173,292.3 M196.6,294.8l0,0.2l0,0.2
		l0,0.1l0.3,0.1l0.1,0.1l0,0.2l-0.1,0.5l0.1,0.2l0.4,0.2l0.2,0.3v0.3l-0.1,0.4l-0.2,0.5l0,0.3l0.2,0.3l0.5,0.6l-0.2,0.4l0,0.5
		l0.3,1.4l0.1,0.2l0.2,0.2l0.3,0.2l0.4,0.1l0.2-0.1l0.2-0.2l0.2-0.2h0.2l0.1,0.2l0,0.3l0.1,0.3l0.2,0.2l0.4-0.1l0.4-0.5l0.3-0.6
		l0.1-0.5l0-0.9l-0.4-3.1v-0.3l0.1-0.5l0-0.2l-0.1-0.2l-0.2-0.7l-0.4-0.9l-1.1-1.5l-0.3-0.9l-0.8-1l-0.4-1l-0.2-0.4l-0.7-0.5
		l-0.5-0.9l-0.3-0.3l-0.2-0.4l-0.4-0.3l-0.7-0.4l-0.4,0.1l-0.4,0.5l-0.3,0.6l-0.3,0.6l0,0.2l0.1,0.1l0.1,0.1l0.1,0.1l0.2,0.8
		l0.1,0.2l0.1,0.1l0.2,0.1l0.4,0.1l0.4,0l0.3,0.1l0.3,0.4l-0.6-0.2h-0.4l-0.3,0.2l-0.1,0.4l0,0.4l0.2,0.7l0.1,1.4l0.1,0.2l1.2,0.7
		L196.6,294.8 M216.6,324.7l-0.1,0.4l0.1,0.2l0.4-0.3l0.1-0.1l0.5-0.8l0.3-0.4l0.1-0.1l0.1-0.1l0.4-0.3l0.2-0.2l0.1-0.3l0.3-0.5
		l0.1-0.2l0.4-0.3l0.2-0.2l0.1-0.2l0.2-0.4l0.1-0.3l-0.2-0.3l-0.2,0.2l-0.2,0.3l-0.2,0.2l-0.4,0.1l-0.7-0.2l-0.6,0l-0.1,0l-0.1,0.1
		l-0.2,0.6l0,0.2c0,0.4,0,0.8,0,1.2l-0.1,0.4l-0.3,0.4l0,0.5l0,0.1l-0.1,0.2L216.6,324.7 M211.3,305.6l-0.4,0.2l-0.1,0.3l-0.2,0.7
		l-0.3,0.7l-0.3,0.6l-0.4,0.5l-0.6,0.3l0-0.3l-0.2-0.1l-0.3,0.1l-0.2,0.3l-0.2,0.3l-0.5,0.5l-0.3,0.4L207,311l-0.1,0.5l0,0.3
		l0.2,0.3l0.5,0.2l0,0.3l0.1,0.6l0.8-0.1l0.9-0.4l0.6-0.4l0.1-0.1l0.2-0.3l0.1-0.1l0.2-0.2l0.4-0.2l0.2-0.1l0.3-0.1l0.3,0l0.6,0.2
		l0.1-0.2l-0.2-0.2l-0.1-0.2l-0.1-0.6l-0.1-0.2l-0.3-0.4l-0.1-0.3l-0.1-0.1l-0.1-0.1l-0.1,0l-0.3,0.1l0-0.1l0-0.2l0-0.1l0-0.2l0-0.2
		l0.1-0.2l0.1-0.3l0.5,1l0.2,0.6l0.3,0.4l0.2,0.6l0.2,0.7l0,0.5l-1.3,0l-0.7,0.2l-0.2,0.6l-0.3,0.1l-0.7,0.7l-0.3,0.1l-0.7,0.3
		l-0.6,0.1l0.4,0.8l0.1,0.3l-0.2,0l-0.7-0.8l-0.3-0.2l-0.3,0.2l-0.2,0.6l-0.1,0.7l0,0.4l0.1,0.8l0.1,0.3l0.3,0.3l-0.1,0.2l-0.1,0
		l-0.1,0.1l-0.1,0.1l-0.1,0.1l0.1,0.2l0.2,0.6l0.9,1.6l0.4,0.5l0.5,0.2l0.6-0.1l0.6-0.6l0,0.3l0,0.3l0,0.3l0.1,0.1h0.2l0.1-0.2
		l0.1-0.3l0-0.8l0.1-0.4l0.5-0.9l0.5-1.1l0.3-0.5l0.3-0.2l0.3-0.1l0.2-0.5l0.1-0.6l0-0.4l0.3,0l0.1,0.2l0.1,0.3l0.3,0.2l0.3-0.1
		l0.2-0.5l0.2-1l0.1-0.2l0.2,0.1l0.1,0.2l0,0.2l0,0.2l-0.2,0.5l-0.2,0.4l-0.1,0.2l-0.8,1l-0.3,0.2l-0.3,0.1l-0.2,0.2l-0.3,0.6
		l-0.3,0.4l-0.7,0.6l-0.3,0.4l-0.2,0.5l-0.2,0.9l-0.2,0.5l-0.2,0.4l-0.2,0.4l-0.3,0.4l-0.3,0.4l0,0.2l0.4-0.1l0.4,0l1.4,0.6l0.2,0
		l0.2-0.2l0.4-0.6l0.2-0.2l0-0.2l-0.1-0.1l-0.1-0.1l-0.1,0l0.5-0.4l0.2-0.3l0.3-1l0.2,0.2l0.2-0.1l1.5-2.4l0.6-1.1l0.4-1l0.4-1.2
		l0.2-1l0.2-2.3l0-0.2l0-0.2l-0.1-1.2l-0.1-0.3l-0.6-0.3l-0.3-0.4l-0.9-1.6l-0.5-1.7l-0.3-0.7l-1-0.4l-0.5-0.6l-0.3-0.1l-0.3-0.1
		l-0.2,0l-0.3,0.2l-0.1,0.2l0,0.3v0.3l-0.1,0.3l-0.1,0.5L211.3,305.6 M218.2,335.9l0.1-1.3l-0.3-0.3l-0.5-0.3l-0.5-0.1l-0.5,0.1
		l-0.4,0.2l-1.3,0.2l0.2,0.3l0.2,0.2l0.3,0.2l0.3,0.1h0.3l0.4-0.1l0.2,0l0.2,0.2l-0.1,0.3l-0.3,0.2l-0.7,0l-0.3,0.1l-0.2,0.2
		l-0.1,0.3l0.2,0.4l0.4,0.2l0.8,0.1l0.5,0.4l0.3,0.2l0.3-0.1l0.3-0.4l0-0.4l-0.1-0.4l0-0.3L218.2,335.9 M216.8,297l0.8,0.8l0.2-0.4
		l0.3-0.7l0.6-0.7l0.1-0.4l0.3-0.3l0.7-0.4l-0.2-0.3l-0.3,0l-0.4,0.1l-0.3,0l-1.3-0.5l-0.7,0l-0.4,0.1l-0.2,0.1l-0.2,0.2l-0.7,0
		l-0.3,0.1l-0.6,0.4l-0.2,0.3l-0.2,0.6l-0.5,1.5l-0.6,0.9l-0.5,1l-0.4,1l-0.2,0.6l0.5-0.5l0.5-0.4l0.3-0.1l0.2,0l0.2-0.1l0.3-0.4
		l0.1-0.7l0.2-0.4l0.3-0.1l0.2,0l1.9-1.1L216.8,297 M216.4,320l-0.5,0.4l-0.4,0.4l0.1,0.4l0,0.4l-0.2,0.4l-0.3,0.3l-0.2,0.2
		l-0.2,0.5l-0.2,0.2l-0.2,0.2l0,0.2l0,0.2v0.2l-0.8,2.1l-0.2,1l0.2,0.7l-0.2,0.1l-0.3,0.5l-0.4,0.3l-0.4,0.2l-0.4,0.2l-0.2,0.5
		l0.3,0.4l0.5,0.2l0.4,0l1.5-0.9l0.1-0.2l0.5-0.6l0.2-0.2l0.1-0.2l0.1-0.2l0.1-0.2l0.1-0.4l0-0.4l0.2-0.5l0.1-0.3l0-0.2l0-0.1v-0.3
		l0.6-1.8l0.1-0.1l0.2-0.3l0.1-0.3l-0.1-0.3l-0.1-0.6l0.3-1.1l0.2-1l-0.3-0.1L216.4,320 M205.1,274.7l-0.2-0.1l-0.2,0.1l-0.2,0.2
		l-0.5,0.6l0,0.3l0,0.3l0,0.3l0.2,0.2l0.2,0l1-0.2l0.1-0.5l-0.1-0.6l-0.3-0.3l0.1-0.2L205.1,274.7 M202.7,282l-0.2-0.2l-0.7,0.2
		l-0.3,0l-0.3,0.1l-0.3,0.3l-0.5,0.7l0.7,0.7l0.1,0.3l0,0.5l-0.2,0.4l-0.2,0.3l-0.2,0.4l-0.2,0.5l0.1,0.2l0.5,0.3l0.8,0.9l-0.1,0.4
		l-0.4,0.7l-0.1,0.4l0.1,0.3l0.3,0l0.5-0.1l0.6,0l0.7,0.2l0.6,0.4l0.2,0.7l-0.2,0.1l-0.4-0.5l-0.8-0.4l-0.9,0l-0.6,0.4l-0.1,0.5
		l0.2,0.3l0.7,0.2l0.3-0.1l0.4-0.3l0.3-0.2l0.3,0.4l-0.4,0.1l-0.1,0l-0.1,0.2l0.3-0.1l0.2,0.1l0.3,0.4l-0.4,0.1l-0.2,0.1l-0.2,0.2
		l0.3,0.1l0.2,0.1l0.1,0.3l-0.1,0.5l-0.2,0.4l-0.6,0.7l-0.1,0.2l0.2,0.4l0.3,0.1l0.3,0l0.2,0.1l-0.1,0.3l-0.2,0.4l-0.4,0.6l0,0.2
		l0,0.6l0.1,0.2l0.5,0l0,0.1l-0.1,0.1l-0.1,0.2l0,0.1l0.3,0.8l0.1,0.2l0.2,0.1l0.3-0.1l0.2,0l0.1,0.2l-0.3,0.1l-0.1,0.2l0.4,0.5
		l-0.1,0l-0.2,0.1l-0.1,0l0,0.4l0.2,1.2l0,0.3l-0.1,0.6l0.2,0.3l0.4,0.1l0.4-0.1l0.2,0.5l0.3-0.1l0.2-0.5l0-0.7l0.1-0.3l0.1-0.4
		l0.1-0.4l0.2-0.1l0.2,0.6l0.2,0.2l0.4-0.5l0.1-0.3l0.1-0.4l0.1-0.4l0.2-0.4l0.2-0.2l0.3-0.3l0.3-0.2l0.3-0.1l0-0.5l-0.2-0.6
		L208,297l-0.2-0.3l-0.9-0.3l-0.4-0.3l-0.2-0.5l-0.1,0l-0.3,0l0.3-0.3l0.2,0l0.5,0.7l0.2,0.1l0.3,0.1l0.3,0V296l-0.1-0.3l-1.1-2.9
		l-0.4-2.4l-0.1-0.2l0-0.4l-0.3-1.4l-0.1-0.2l-0.3-0.3l-0.1-0.2l-0.1-0.4l-0.1-0.2l-0.4-0.4l-0.4-1.4l-0.2-0.3l-0.1-0.2l0.1-0.3
		l-0.1-0.1l-0.4-0.3l-0.1-0.2l-0.1-0.6l-0.5-0.7L202.7,282 M197.4,271.3l-0.3,0.3l-0.3,0.3l0.1,0.4l0.4,0.9l0.1,0.1l0,0.4l0.2,0.3
		l0.3,0.2l0.3,0l0.4-0.6l-0.1-0.9l-0.6-1.5l-0.3-0.1L197.4,271.3 M209.4,302.9l-0.4,0.4l-1.3,0.7l-0.3,0.4l-0.3,0.5l-0.3,0.6
		l-0.1,0.6l0,0.2l0.2,0.4l0.1,0.2l0,0.3l0.1,0.2l0.1,0l0.2-0.3l0.3,0.2l1.1,0.5l0.4,0l0.2-0.3l0.1-1.2l0.2-0.6l0.2-0.3l0.3-0.4
		l0.1-0.2l0-0.3l0-0.4l0-0.3l0.1-0.3l0.2-0.4l0.1-0.3l0-0.3l-0.1-0.3l-0.2-0.2l-0.3-0.3l-0.3-0.1l-0.2,0l-0.1,0.3l0.1,0.5l0,0.3
		L209.4,302.9 M215.6,298.3l0-0.4l-0.5,0.2l-0.6,0.4l-0.4,0.4l-0.4,0.9l-1.1,0.8l-1,0.9l0,1.2l0.2,0.1l0.6-0.2l0.3,0l0.7,0.2
		l0.2,0.2l0.4,0.5l0.2,0.1l0.2,0l0.2-0.2l0.1-0.3l0-0.3l0.3-0.2l0.2-0.2l0.1-0.3l0.1-0.4l-0.1-2.2l0.1-0.6L215.6,298.3 M204.1,271
		l-0.2-0.7l-0.2-0.1l-0.3,0l-0.3,0.2l-0.2,0.3l0.2,0.5l0.3,1.2l0.3,0.4l0-0.2l0-0.1l0.1-0.1l0.1,0l0.2-0.1l0.1-0.1v0.1l0,0.1
		l0.1,0.2l0.5,0.3l0.7-0.4l0.5-0.7l-0.1-0.6l-0.4-0.2l-0.5,0.2l-0.5,0.4l-0.3,0.6l0-0.2l0-0.7L204.1,271 M237.8,394.2l-0.8-0.1
		l-0.3,0l-0.2,0l-0.4,0l-0.4,0.1l-0.5,0l-0.7-0.3l-0.6,0l-0.1,0l-0.1,0.1l0,0.1l0,0.1l0,0.1l0.1,0.2l0.1,0.1l0.3,0.2l1.7,0.4
		l0.3-0.1l0.2,0l0.2,0.2l1.5,0.1l0.1-0.2l0.1-0.5l-0.2-0.4L237.8,394.2 M240.8,394.7l-0.3-0.1l-0.2,0.1l-0.2,0.1l-1.2,0.1l-0.3,0.1
		l-0.1,0.2l-0.3,0.3l-0.4,0.1l-0.4,0.1l-0.1,0.1l0.2,0.2l0.2,0.2l0.3,0.4l0.6,0.3l0.6,0l0.4-0.1l0.3-0.1l0.1-0.2l0-0.2l0-0.1l0.5,0
		l0.2-0.1l0.2-0.2l0.3-0.5l0-0.5L240.8,394.7 M255,419.9l0.2-0.3l1-0.6l0.1,0l0,0l0,0l0-0.1l-0.5-0.1h-0.8l-0.1,0.1l-0.1,0.1
		l-0.1,0.3l-0.2-0.3l-0.2-0.1l-0.2,0.1l-1.3,0.8l0.1,0.8l0.2,0.6l0.4,0.2l0.6-0.4l0.8-1L255,419.9 M240.5,403.7l0.4,0l0-0.4l0.2-0.2
		l0.3-0.2l0.2-0.3l0.1-0.3l0-0.4l0-0.3l-0.2-0.3l-0.1-0.6l-0.2-0.2l0-0.1v-0.6l-0.2-0.2l-0.4-0.1l-0.5,0l-0.4,0.1l-0.2,0.3l-0.3,0.5
		l-0.2,0.5l0,0.7l-0.2,0.7l-0.1,0.3l0,0.3l0.1,0.3l0.1,0.2l0.1,0.1l0.1,0.3l0.6,1l0.2,0.5l-0.2,0.1l-0.1,0l0,0.3l0.2,0.6v0.3
		l-0.1,0.6l0.1,0.3l0.2,0.3l0.1-0.2l0.2-1l0.2-0.8l0-0.2l-0.1-0.3l-0.1-0.1l-0.1-0.1l-0.1-0.2l-0.1-0.5l0.1-0.3L240.5,403.7
		 M247.6,402.1l-0.7-0.5l-0.4-0.5l-0.3,0.2l-0.3,0.4l-0.3,0.2l-0.3,0.1l-0.1,0.3l0,0.4l0.2,1l0.2,0.2l0.3,0.2l0.6,0l0.2,0.1l0.1,0.4
		l-0.3,0.1l-0.3,0l-0.2,0.1l-0.1,0.3l0,0.6l0.1,0.3l0.1,0.2l0.4-0.1l0.5-0.2l0.5-0.3l0.3-0.3l0-0.6l-0.3-0.4l-0.3-0.5l0.2-0.9
		l0.2-0.4l0.1-0.2l0-0.1L247.6,402.1 M244.4,403.8l-1,0.7l-0.5,0.3l-0.2,0.2l0,0.3l0.4,0.8l0,0.2l0,0.2l-0.1,0.3l-0.1,0.2l-0.1,0.3
		l0,0.3l0.3,0.2l0.2-0.1l0.4-0.6l0.3-0.1l0.5,0l0.5-0.1l-0.1-0.3l0-0.3l0-0.3l0.1-0.4l0-0.1l-0.1-0.2l0-0.2l0.1-0.1l0.1-0.1l0.1-0.1
		l0.1-0.2l0-0.1l0-0.5l-0.4-1.7l-0.1-0.2l-0.1-0.1l-0.1,0l0,0.3l0.1,0.6l0,0.3L244.4,403.8 M242.4,420l-0.1-0.2l-0.2-0.6l-0.2,0.1
		l-0.2,0.5l-0.2,0.5l0.1,0.5l0.8,1.7l0.3,0.3l0.2,0.1l0.1,0.1l0.2,0l0-0.2l-0.2-0.2l-0.1-0.1L242.4,420 M243.4,422.3l0.2,0.4
		l0.1,0.1h0.2l0.2-0.2l0.2-0.3l0.2-0.1l0.3,0.2l0.2,0l-0.1-0.2l-0.1-0.1l-0.6-0.7l-0.4-0.2l-0.4,0.2l-0.2,0.4L243.4,422.3
		 M243.2,398.3l0.1-0.6l0-0.2l-0.1-0.1l-0.3,0l-0.1-0.1l0-0.2l-0.1-0.4l-0.1-0.1l-0.2-0.1l-0.6-0.9l-0.3,0.2l-0.3,0.4l-0.2,0.3
		l-0.1,0.4l-0.1,0.4l-0.2,0.3l-0.3,0.1l-0.6-0.4l-0.4-0.1l-0.3,0.4l-0.1,0.6l0.2,0.4l0.3,0.1l0.4,0l0.2-0.1l0.2-0.1l0.2-0.1l0.5,0
		l0.2,0l0.1,0.1l0.1,0.2l0.1,0.2l0.2,0l0.2-0.1l0.2,0.1l0,0.1l0,1.5l0.1,0.5l0.4,0.5l-0.1,0.5l-0.2,0.6l-0.2,0.4l-0.5,0.7l-0.1,0.2
		l0.1,0.3l0.1,0l0.1-0.1l0.4-0.2l0.3-0.4l0.6-1l0.1,0.2l0.1,0.2l0.2,0l0.2-0.2l0.1-0.3l0-0.4l0-0.3l0-0.2l0-0.4l-0.3-1.1l0-0.7
		l-0.2-0.7v-0.2L243.2,398.3 M258.8,452.1l-0.1-0.2l-0.1-0.3l-0.1-0.3l-0.1-0.3l0,0l0,0.3l-0.1,0.1l-0.1-0.1v0.1l0.1,0.4l0.1,0.3
		l0.1,0.3l0.2,0.2l0.2-0.2l0-0.3l-0.1-0.1L258.8,452.1 M246,416.3l-0.2,0.1l0.3,0.7l0.2,0.3l0.6,0.4l0.5,0.7l0.2,0.2l0,0.1l0.3,0.4
		l0.1,0l0.1,0l0.1,0.1l0,0.1l0,0.4l0.2,0.7l-0.1,0.2l-0.1,0.2v0.2l0.9,0.5l2.2,3l0.4,0.8l0.2,0.3l0.4-0.2l-0.1-0.9l-0.3-0.8l-1-2.1
		l-0.1-0.4l0-0.3l0-0.3l-0.3-0.7l0-0.3l-0.1-0.7l-0.6-0.6l-1.4-0.9l-0.4-0.5l-0.6-0.4l-0.2-0.3l-0.1-0.7l-0.1-0.3l-0.1-0.2l-0.2-0.1
		l-0.2-0.1l-0.2-0.1l0,0.2l0,0.1l-0.1,0.2l-0.1,0.2l0,0.2l-0.1,0.2L246,416.3 M261.2,448.7l-0.3-0.1l-0.1-0.2l0.1-0.3l0.1-0.3
		l-0.2-0.3l-0.3-0.4l-0.2-0.1l-0.2-0.1l-0.2,0.1l-0.1,0.2l0.1,0.3c-0.1,0.2-0.1,0.4-0.2,0.6l0,0.2l0.2,0.3l0.1,0.2l0.3,0.5l0.3,0.2
		l0.2,0.1l0.4,0.2l0.2,0l0.1-0.2l0-0.4l-0.2-0.1L261.2,448.7 M256.2,436.1l-0.7-0.5l-0.5-0.6l-0.1-0.2l0-0.2l-0.1-0.1l-0.5,0
		l-0.1,0.1l-0.1,0.1l0,0.1v0.1l-0.1,0.1v0.3l0.2,0.4l0.9,0.8l0.4,0.2l0.3,0.1h0.3l0.1,0l0.1,0.1l0.2-0.1l0.1-0.3l-0.1-0.2
		L256.2,436.1 M258.9,447.7l-1.3-1.9l-0.3-0.6l0-0.1l0.1-0.2l0.1-0.1l0.1,0l0.1,0.1l0.1,0.3l0.2,0.2l0.2,0.1l0.2,0.1l-0.8-1.6
		l-1-1.4l0-0.3l0-0.1l-0.1-0.1l-0.2,0.8l-0.1,0.6l0.1,0.5l0.3,0.6l-0.5,0.2l-0.1,0.4l0.1,0.5l0.2,0.4l-0.1,0.2l-0.3,0.2l-0.2,0.3
		l0,0.4v0.3l0.1,0.4l0.1,0.2l0.2,0.2l0.1,0.3l0.2,0.2l0.4,0l0.4-0.1l0.3-0.1l0.1-0.2l-0.2-0.6l-0.1-0.2l0.7,0.6l0.4,0.1L258.9,447.7
		 M248.4,424.7l0.1,0.2l0.5,0.5l0.3,0.2l0.4,0.2l0.2,0l0.2,0l0.3,0.1l0.7,0.5l0.3-0.1l0.1-0.2l-0.7-1.2l-0.3-0.2l-0.3-0.1l-0.2-0.2
		l-0.2-0.1l-0.4-0.1l-0.1-0.1l-0.3-0.4l-0.2,0l-0.2,0.1l-0.2,0.2l0,0.2l0.2,0.1l0.1,0.2L248.4,424.7L248.4,424.7 M263.1,430.3
		l0.2-0.1l0.2-0.1l0.2-0.1l0.2,0l0.2,0.2l0,0.3l-0.3,0.3l0.6,0.1l0.5-0.4l0.2-0.6l-0.2-0.6l0-0.8l0-0.2l-0.2-0.1l-0.2,0l-0.2,0h-0.5
		l-0.4,0.1l-0.3,0.3l0,0.4l-0.1,0.2l-0.3,0.1l0,0.2l0,0.3l-0.1,0.3L263.1,430.3 M260.4,444.6l-0.5-0.3l-0.3-0.5l-0.6-0.4l-0.4-0.2
		l-0.2-0.2l-0.9-1.3l-0.3-0.5l-0.8-2.5l-0.2-1.1l-0.2-0.1l-0.2,0.2l-0.1,0.5l0.3,1.2l0,0.2l0.3,0.3l1,2.6l1.2,1.4l0.5,1l0.3,0.4
		l0.5-0.1l0.2,0.2l0.2-0.1l0.1-0.3l0-0.4L260.4,444.6 M249,403.6l-0.4,0.5l-0.2,0.4l-0.1,0.5l0,0.3l-0.1,0.2l0,0.2l0.2,0.1l0.4-0.1
		l0.6-0.4l0.5-0.8l0.2-1l-0.2-0.8l-0.4-0.5l-0.4-0.1l-0.2,0.1l-0.3,0.1l-0.3,0.2l-0.3,0.3l-0.5,0.5l0,0.2l0.1,0.1l0.2,0.3l0.2,0.2
		l0.2-0.1l0.7-0.8l0.2-0.3l0.1-0.2l0.1-0.2l0.1-0.3l0.1,0l0.1,0.2l0,0.3l-0.2,0.3L249,403.6 M221.6,385.1l0.1,0.2l0.5,0.3l0.6,0.2
		l0.8,0.1h0.1l0.2-0.1l0.1-0.2l-0.1-0.2l-0.2-0.2l-0.6-0.3l-0.1-0.1l0-0.1l-0.2,0h-0.2l-0.3-0.1l-0.5-0.2l-0.2,0v0.1l0.2,0.2v0.3
		L221.6,385.1 M209,259.8l0.5-0.1l1-0.5l0.7-0.1l0.2-0.1l0.3-0.2l1-0.9l0.3-0.2l0.5-0.2l0.3-0.2l0.5-0.5l0.3-0.5l0.2-0.6l0.1-0.7
		l0-0.4l-0.4,0.1l-1.3,1l-3.6,1.9l-0.8,0.2l-0.1,0.3l0,0.4l0,0.3l0,0.2l0.1,0.5l0,0.2L209,259.8 M263.6,448.4l-0.8-0.3l-0.5-0.5
		l-0.3-0.5l-0.3-0.2l-0.1,0.3c0.1,0.1,0.1,0.2,0.2,0.2l0,0.2c0,0.1-0.1,0.2-0.1,0.4l-0.1,0.2l0.2,0.3l0.2,0.2l0.2,0.2l0.4,0.1
		l0.3,0.1l0.3,0.2l0.3-0.1l0.3-0.2l0.1,0l0.3,0l0.2,0l0-0.1l-0.1-0.2L263.6,448.4 M416,478.3l-0.3-0.2l-0.3-0.1l-0.3-0.1l-0.2-0.2
		l-0.2-0.4l-0.2-0.4l-0.1-0.3l0-0.4l0.1-0.3l0.1-0.3l0-0.3l-0.1-0.1l-0.2-0.3l-0.3-0.3l-0.2-0.2l-0.2-0.3l-0.3-0.1l-0.3,0l-0.3-0.1
		l-0.2-0.1l-0.2-0.1l-0.2-0.1l-0.3,0l-0.3,0l-0.3-0.1l-0.2-0.2l-0.1-0.3l0-0.3l0.1-0.2l0.1-0.1l0.1-0.2l-0.1-0.2l-0.2-0.1l-0.3-0.1
		l-0.2-0.1l-0.1-0.2l0-0.2l0-0.2l0-0.2l-0.1-0.1c-0.1-0.1-0.1-0.1-0.2-0.2l0-0.1l0-0.2v-0.4l0-0.1l-0.2-0.3l-0.2-0.1l-0.2-0.1
		l-0.2-0.2l0-0.1l0-0.1l0-0.1l0-0.1l-0.1-0.2l-0.1-0.1l-0.1,0l-0.1-0.1l-0.3-0.5l-0.1-0.7l0-0.7l0.2-0.7l0.3-0.4l0.3-0.6l0.2-0.6
		l-0.1-0.5l-0.2,0l-0.2,0.1l-0.2,0.1l-0.2,0l-0.1-0.1l-0.1-0.1l-0.1-0.1l-0.1-0.1h-0.1c-0.1,0-0.2,0-0.3,0.1l-0.1,0l-0.1-0.1l0-0.1
		V463l0-0.1l-0.1-0.1l-0.1-0.1l-0.1-0.1l-0.1-0.1l-0.1-0.2l-0.1-0.2l0-0.2l0.1-0.3l0.2-0.2l0.2-0.2l0.2-0.1l0.2,0l0.2,0l0.1-0.1
		l0-0.2l0.1-0.2l0.2-0.3l0.1-0.2l0.1-0.2l0.1-0.3l0-0.1l0-0.1l0-0.1l0.1-0.1l0.1-0.1l0.1-0.1l0.1-0.1l0.1-0.1l0.1-0.3v-0.2
		c0-0.2-0.1-0.3-0.1-0.5l0-0.1l0-0.1l0.1-0.1l0.1,0l0.2-0.1l0.1-0.2l0-0.2l0-0.3l0-0.7l-0.2-0.6l-0.2-0.6l-0.1-0.6l0-0.4l0.1-0.5
		l0.1-0.5l0.1-0.3l0.2-0.1l0.2,0.1l0.2,0l0.2-0.2l0-0.3l0-0.3l-0.1-0.3l0-0.3l0-0.2c0-0.2,0.1-0.3,0.1-0.5l0-0.2l0-0.1l0-0.1l0-0.1
		l0-0.1l0-0.1l-0.1,0l-0.1,0l-0.1-0.1l-0.1-0.2l0-0.2l0-0.2l0-0.2l0-0.1l-0.1-0.1l-0.1-0.1l0-0.1l0-0.3v-0.3l0-0.3l0-0.3l0.1-0.5
		l0.1-0.3l0-0.3c0-0.3-0.1-0.5-0.1-0.8l0-0.3c0-0.2,0-0.5,0.1-0.7l0.1-0.4l0-0.2l0-0.2c-0.1-0.2-0.1-0.4-0.2-0.6l-0.1-0.3l0-0.3
		l0.3-0.2l0.1-0.2l-0.2-0.4l-0.3-0.5l-0.2-0.3l-0.2-0.2l-0.1-0.1l-0.1-0.1l-0.1-0.3c0-0.2-0.1-0.5-0.1-0.7l-0.1-0.3l-0.3-0.6
		l-0.2-0.5l-0.2-0.6c-0.1-0.3-0.2-0.7-0.3-1l-0.1-0.3l-0.1-0.3l-0.2-0.3l-0.2-0.2l-0.2-0.1l-0.2-0.1l-0.2-0.2l-0.3-0.1l-0.5-0.1
		l-0.5,0.1l-0.3,0.3l-0.1,0.2l-0.2,0.1l-0.2,0l-0.1,0l-0.2-0.2l-0.1-0.3l0-0.3l-0.1-0.3c-0.2-0.3-0.4-0.7-0.6-1l-0.3-0.6l0-0.3
		l0.2,0l0.1,0l0.1-0.1l0.1-0.3l0-0.2l0-0.3l-0.1-0.3l-0.1-0.2l-0.1-0.2l-0.1-0.2l-0.1-0.2l-0.1-0.2l-0.2-0.1l-0.2,0.1l-0.2,0.2
		l-0.2,0l-0.2-0.2l0-0.3v-0.3l-0.1-0.3l-0.2-0.2l-0.3,0l-0.2-0.1l-0.1-0.3l-0.1-0.3l-0.2-0.2l-0.2-0.1l-0.2-0.1l-0.2-0.2l-0.1-0.3
		l-0.1-0.3l-0.1-0.4l-0.3-0.3l-0.5-0.2l-0.3-0.3l0.2-0.6l0.2-0.2l0.3,0l0.3,0l0.3,0l0.2-0.2l0-0.2l-0.1-0.2l-0.1-0.2l-0.1-0.3l0-0.2
		l0-0.2l0-0.3l0-0.3l-0.2-0.1l-0.2-0.1l-0.2-0.1l-0.1-0.2l0-0.2v-0.2l-0.1-0.2l-0.2-0.3l-0.3-0.2l-0.3-0.2l-0.3-0.3l-0.1-0.2l0-0.2
		c0-0.2,0-0.3,0-0.5l-0.1-0.2l-0.2-0.2l-0.2-0.2l-0.1-0.1l-0.4-0.1l-0.5-0.1l-0.5-0.1l-0.4-0.2l-0.3-0.3l-0.4-0.4l-0.3-0.5l-0.2-0.4
		l0-0.5c0.1-0.3,0.2-0.7,0.2-1l0-0.5l-0.3-0.6l-0.5-0.3l-0.5-0.2l-0.4-0.4l-0.1-0.2l0-0.3l0-0.3l-0.1-0.2l-0.2-0.2l-0.3-0.1l-0.3,0
		l-0.3-0.1l-0.2-0.2l-0.1-0.2l-0.1-0.3l-0.1-0.3l0-0.2c0-0.1,0.1-0.2,0.1-0.3l0-0.2l0-0.2c-0.1-0.1-0.1-0.2-0.2-0.3l0-0.1l0.1-0.6
		l0.2-0.6l0.1-0.6l-0.2-0.5l-0.4-0.3l-0.4-0.3l-0.3-0.4l0-0.6l0.1-0.4l0-0.2l0-0.2l-0.1-0.2l-0.2-0.2l-0.2-0.1l-0.2-0.2l-0.1-0.3
		l0-0.3l0-0.2l0-0.2l-0.1-0.3l-0.2-0.3c-0.2-0.1-0.4-0.3-0.6-0.4l-0.3-0.3l-0.1-0.6l0.1-0.6l0.1-0.6l-0.1-0.4l-0.1-0.2
		c0-0.1-0.1-0.3-0.1-0.4L388,400l-0.1-0.2l0-0.2l0.1-0.3l0-0.3l-0.1-0.3l-0.1-0.2l-0.2-0.1l-0.2,0l-0.3,0.1h-0.2l-0.2,0l-0.2,0
		l-0.2,0.1l-0.3,0.2c-0.2,0.1-0.3,0.3-0.5,0.4c-0.1,0.1-0.2,0.1-0.3,0.2l-0.1,0.1l-0.1,0.2l0,0.1l0.1,0.1l0,0.1l-0.3,0.3l-0.5,0.1
		l-0.5-0.1l-0.4-0.2l-0.3-0.4l-0.1-0.6l0-0.7l-0.1-0.6l0-0.3l0-0.2l0-0.3l0.1-0.3v-0.3l-0.1-0.2l-0.2-0.2l-0.1-0.2v-0.2l0-0.3
		l0.1-0.3l0.1-0.2v-0.4l-0.1-0.3l-0.2-0.3l-0.1-0.2l-0.1-0.3l-0.2-0.5l-0.1-0.2l-0.2-0.3l-0.3-0.2l-0.3-0.2l-0.2-0.2l-0.2-0.3
		l-0.1-0.3l-0.1-0.4l-0.1-0.3l0-0.1l-0.1-0.1l-0.1-0.1l0-0.1l0-0.1l-0.1,0l-0.1,0l-0.1-0.1v-0.1l0-0.1l0-0.1l0-0.1
		c-0.1-0.2-0.1-0.4-0.2-0.6l0-0.3l0-0.4l0.1-0.3c0.1-0.2,0.1-0.4,0.1-0.5l0-0.3l0-0.2l0-0.3l0-0.3l-0.1-0.2l-0.2,0l-0.1,0.2
		l-0.1,0.3l-0.2,0.3l-0.6,0.3l-0.6-0.2l-0.6-0.3l-0.5-0.3l-0.5,0l-0.6,0.1l-0.5,0l-0.3-0.4l-0.2-0.7l-0.3-0.5L374,385l-0.5-0.2
		l-0.4-0.3l-0.3-0.5c-0.1-0.4-0.3-0.9-0.4-1.3l0.1-0.4l0.5-0.4l0.6-0.3l0.4-0.3l0.3-0.5l0.2-0.5l0-0.5l-0.3-0.4l-0.6-0.4l-0.7-0.3
		l-0.6-0.3l-0.6-0.6l-0.2-0.4l-0.2-0.5l-0.2-0.4l-0.3-0.1l-0.1,0.1l-0.1,0.2l-0.1,0.2l-0.1,0.2l-0.1,0.1l-0.1,0.1l-0.1,0.1l0,0.1
		l0,0.2l0,0.2L370,378l-0.1,0.2l-0.4,0.2l-0.5-0.1l-0.5-0.2l-0.4,0l-0.3,0.2l-0.4,0.2l-0.3,0.1l-0.2-0.1l0-0.1
		c0-0.1,0.1-0.3,0.1-0.4l0-0.2l-0.1-0.3l-0.1-0.3l0-0.3l0.1-0.4l0.2-0.2l0.2-0.1l0.3,0l0.2-0.2l0.1-0.3l-0.1-0.2
		c-0.1-0.1-0.2-0.1-0.4-0.2l-0.1-0.2l-0.1-0.3l-0.1-0.3l0-0.2l0-0.3l0.1-0.2l0.1-0.2l0.1-0.2l-0.1-0.3l-0.2-0.2l-0.2-0.2l-0.1-0.2
		l0-0.2l0-0.2l0-0.2l0-0.2l0-0.3l0.2-0.2l0.3-0.2l0.2-0.1l0.3-0.3l0-0.3l-0.1-0.3l-0.1-0.3l-0.1-0.5l0-0.5l-0.1-0.5l-0.2-0.4
		l-0.2-0.2l-0.2-0.2l-0.2-0.3l-0.1-0.4l0.1-0.2c0.1-0.1,0.2-0.2,0.3-0.4l0.1-0.3l0-0.4l-0.1-0.2l-0.2-0.2l-0.2-0.2l-0.1-0.2l0-0.3
		l0-0.3l0-0.3l-0.2-0.2l-0.3-0.1l-0.3,0l-0.3,0l-0.2,0l-0.3,0.1l-0.3,0.1l-0.2,0l-0.2-0.3l0-0.5l0.1-0.6l-0.1-0.5l-0.2-0.6l0.1-0.3
		l0.2-0.3l0.2-0.5l0-0.5l-0.2-0.1l-0.2,0l-0.2-0.1l0-0.2l0-0.2l0-0.2l-0.2-0.1c-0.2,0.1-0.3,0.1-0.5,0.2l-0.2-0.1l0-0.4l0.1-0.2
		l0.2-0.2l0.2-0.2l0.1-0.2l0.1-0.3l0-0.2c-0.1-0.1-0.2-0.2-0.2-0.3l-0.3-0.5l-0.2-0.5l-0.3-0.5l-0.3-0.5l-0.2-0.2l-0.2-0.1l-0.2-0.2
		l-0.2-0.2l-0.2-0.3l-0.2-0.3l-0.2-0.2l-0.3,0l-0.2,0.1l-0.1,0.2c0,0.2-0.1,0.3-0.1,0.5l-0.1,0.3l-0.1,0.1l-0.1,0.1l-0.1,0.2l0,0.2
		l0,0.2v0.2l-0.1,0.2l-0.3,0.1l-0.2-0.2l-0.2-0.3l-0.2-0.2l-0.2-0.1l-0.2-0.1l-0.2-0.1l-0.2-0.1l-0.1-0.2l-0.1-0.2l-0.1-0.2
		l-0.2-0.1l-0.3-0.1l-0.1-0.1l-0.1-0.1l-0.2-0.1l-0.2-0.1l-0.2-0.1l-0.2-0.1l-0.1-0.3c-0.1-0.4-0.2-0.7-0.3-1.1l-0.2-0.6l-0.1-0.5
		l0-0.2l0-0.3l0-0.3v-0.3l0.1-0.4l0.1-0.3l0-0.2l-0.1-0.3l-0.2-0.1l-0.3,0l-0.3,0l-0.2,0h-0.3l-0.3-0.1l-0.3-0.2l-0.3-0.2l-0.2-0.2
		l-0.2-0.2l-0.3-0.2l-0.3-0.1l-0.2,0.1l-0.2,0.2l-0.2,0.2l-0.2,0c-0.2-0.2-0.4-0.5-0.6-0.7l-0.3-0.4l-0.2-0.5l-0.1-0.4l-0.1-0.5
		l0-0.5l0-0.5l-0.1-0.6l-0.2-0.5l-0.3-0.2l-0.4,0.1l-0.2,0l-0.1-0.2l-0.1-0.3l0-0.3l0.1-0.2l0.2-0.2l0.2-0.2l0.1-0.2l-0.1-0.3
		l-0.1-0.3l-0.1-0.3l-0.1-0.3l0.1-0.2l0.3,0l0.4,0.1l0.2,0.1l0.4,0.3l0.6,0.3l0.6,0.1l0.4-0.4l0.1-0.5l-0.1-0.5l-0.2-0.4l-0.2-0.3
		l0-0.2l0-0.2l0-0.2l-0.1-0.2h-0.2l-0.2,0.1l-0.2,0.1l-0.1-0.1l-0.1-0.2l-0.2-0.1l-0.2-0.1l-0.1-0.2l0-0.2l0-0.2l0.1-0.2l0.1-0.2
		l0.1-0.1l0.1-0.2l0.1-0.2l0-0.2l-0.2-0.3l-0.3-0.1l-0.3-0.1l-0.2-0.2l-0.1-0.4l0.1-0.5l0.1-0.5l0.2-0.6c2.5-8.7,4.9-17.5,7.4-26.2
		c2.6-9,5.1-18,7.7-27c2.4-8.4,4.8-16.7,7.3-25.1c2.6-8.7,5.1-17.5,7.7-26.2c2.7-9,5.3-18,8-27c2.4-8,4.8-16,7.2-24
		c-8.6-2.4-17.2-4.8-25.8-7.4c-9-2.7-17.9-5.6-26.8-8.5c-8.3-2.8-16.6-5.7-24.8-8.7c-8.4-3.1-16.8-6.3-25.1-9.6
		c-8.6-3.5-17.2-7.1-25.7-10.8c-8-3.5-15.9-7.1-23.8-10.8c-8.5-4-17-8.2-25.4-12.5c-7.9-4-15.7-8.1-23.5-12.4c-8-4.4-16-9-23.9-13.6
		c-0.8-0.5-1.7-1-2.5-1.5l0,0.2l2.6,4.1l-1,2.7l-0.1,1.2c1.4,6.2,2.8,12.4,4.1,18.6l-2.2,6.4l-1.5,1.7l1,0.5l3.1-0.9l7.4-0.8
		l2.9,1.3l3-1.9l2.3-4.2l0.6,0.7l1.4,0.2l1.8-1.2l0.2-0.8l-0.8-1.4l0.9-0.2l1.4,0.2l3,0.9l7.3-0.4l0.5,2.2l0.9,1.7l-0.4,1.1l0.2,1.1
		l0.4,0.2l0.4,2l-1.3,2.3l-0.6,0.1l-0.8,0.5l0.6,1.7l-0.9,0.7v2l2.5,2.3l-0.5,1.4l0.6,2.2l1,0.5l0,2.6l-1,1.5l0.8,0.8l-0.7,1
		l0.1,1.9l3.3,5.5l0.3,3.6l1.6,6.4l-1.4,0.5l-0.2,2.5l0.7,4.7l-0.5,4.2l0.5,3.7c0,3.8,0,7.5,0,11.3c0.2,1.6,0.4,3.2,0.6,4.8
		c0,1.4-0.1,2.9-0.1,4.3c-0.9,0.7-1.9,1.4-2.8,2.1c1.1,1,2.2,2,3.4,3.1l-3,3.6l2.3,2.9l0,0.2l-0.2,0.3l-0.3,0.3l-0.2,0.2l-0.1,0.3
		l0,0.2l0,0.5l0,0.9l-0.1,0.5l-0.2,0.5l-0.5,1l0,0.3l0.3,0.3l1.4,0.7l1.5,0.4l0.3,0.2l0.2,0.3l0.3,0.9c1.1,2,2.2,4,3.4,6l0.9,1
		l2.2,1.4l0.7,1.1l0.6,2.7l0.4,0.6l1.2,1l0.2,0.3l0,0.4l-0.3,1.8l0,0.4l0.1,0.3c0.6,0.5,1.2,1.1,1.8,1.6l0.4,0.2l1.4,0.2l0.3,0.2
		l0.1,0.6l0,1.1l-0.1,0.6l-0.1,0.6l-0.4,1l-0.5,1.1l-0.2,0.4l0.4-0.5l0.2,0l0.2,0l0.1,0.2l0,0.3l-0.5,0.3l-1.3,1.1l-1.8,1.2
		l-0.4,0.4l-0.3,0.6l-0.1,0.5v0.4l0.1,0.2l0.1,0.1l0,0.2l-0.1,0.4l-0.2,0.3l-0.4,0.6l-0.6,1.1l-0.3,0.9l-0.1,0.8l0,1l0,0.3l0,0.2
		v0.2l-0.2,0.6l-0.1,0.6l0,0.2l-0.1,0.3l-0.4,1l-0.1,0.5l0.2,0.9l0,0.5l-0.3,0.4l-1.3,0.8l-1.2,0.5l-0.2,0.2l-0.1,0.1l-0.5,0.4
		L217,252l-0.1,0.1l-0.7,0.8l-0.7,0.5l-0.1,1.4l-0.1,0.4l0,0.4l0.2,0.3l0.3,0.2l0.3,0l0.2-0.1l0.6-0.6l0.6-0.7l0.7-0.6l1.9-1.2
		l0.4-0.4l0.6-0.9l0.3-0.4l0.3-0.1l0.7-0.4l0.2-0.2l0-0.2l0-0.2l0.3-0.6l0.1-0.2l0.4,0l0.2-0.1l0.2-0.2l0.1-0.2l-0.1-0.1l-0.1-0.1
		l0-0.1l0-0.2l0.1-0.1l0.1-0.1l0.3-0.3l-0.1,0l-0.2,0l-0.2,0.1l-0.2,0.1l-0.1,0.3l-0.1,0.1l-0.1,0v-0.2l0.1-0.3l0.1-0.2l0.2-0.2
		l0.2-0.2l0.2-0.1l0.3-0.1l0.2-0.2l0.1-0.2l0.1-0.3l0.1-0.3l0.2-0.1l0.2-0.3l0.1-0.7l0.1-1l0.4-1l0.1-0.5l0.1-0.5l0.3,0l-0.1,0.7
		l-0.6,2.6l0,0.5l0.2,0.6l-0.4,1.1l0.2,0.3l0.2-0.1l0.7-0.6l0.2-0.1l0.2,0l0.6,0.3l0.4,0.3l0.2,0.1l0.2,0l0.5-0.2l0.2,0l0.2-0.1
		l0.1,0l0,0.1l-0.1,0.3l-0.1,0.1l-0.1,0l-0.1,0l-0.6,0.2l-0.4,0l-0.8-0.6l-0.4,0l-0.2,0.2l-0.4,0.4l-0.2,0.1l-0.1,0.1l-0.1,0.3
		l-0.1,0.3l-0.2,0.1l-0.3,0.1l-0.4,0.3l-0.8,0.8l-0.1,0.1l-0.1,0.2l-0.1,0.2l-0.1,0.1l-0.1,0l-0.2,0l-0.3,0.1l-0.4,0.1l-0.2,0.1
		l-0.2,0.2l-0.2,0.2l-0.4,0.5l-0.1,0.1l-0.2,0.1l-0.1,0.1l-0.1,0.3l-0.1,0.1l-0.2,0.2l-0.2,0.1l-0.2,0.1l-0.2,0.1l-0.7,0.6l-0.4,0
		l-0.4,0.3l-0.7,0.9l-0.5,0.5l-0.2,0.3l-0.1,0.2l0.1,0.2l0.1,0.1l0.4,0l3.7,2l0.8-0.1l-0.4,0.4h-0.4l-0.7-0.4l-0.2,0l-0.5,0.1
		l-0.2,0l-0.2-0.2l-0.2-0.5l-0.2-0.1l-0.4,0.1l-0.8,0.6l-0.4,0l-0.4-0.1l0,0l-0.1,0l-0.2,0.2l-0.2,0.1l-0.2,0.1l-0.2,0l-0.2-0.1
		l0.4-0.4l0.3-0.2l0.2-0.2l-0.1-0.5l-0.2-0.2l-0.4-0.1l-0.4,0.1l-0.4,0.2l-1.1,1.1l-0.6,0.2l-0.4,0.2l-0.4,0.3l-0.3,0.3l0.3-0.1
		l0.6,0l0.3-0.1l0.6-0.4l0.3-0.1l0.2,0.2l-0.3,0.3l-0.3,0.3l-0.3,0.2l-0.3,0.2l-0.5,0.2h-0.1l-0.2,0l-0.1,0l-0.1,0.2l-0.2,0.3
		l-0.1,0.1l-0.4,0.4L212,261l-0.3,0.2l-0.1,0.1l-0.4,0.6l0.2,0.2l0.4,0.2l0.2,0.2l0.1,0.4l0.1,0.1l0.2,0.1l0.2,0.3l0.1,1.2l0.1,0.5
		l0.3,0.4l0.3,0.3l1,0.4l0.1,0.1l0,0.1l-0.3,0.1l-0.2,0l-0.2-0.1l-1.1-0.8l-0.3-0.4l-0.1-0.5l0-0.7l0-0.2l-0.1-0.2l-0.3-0.3
		l-0.6-0.9l-0.7-0.5l-0.8-0.2l-0.8,0l-0.8,0.5l-0.2,0.9l0.2,0.9l0.3,0.7l-0.2,0.2l-0.1,0.1l0.3,2.3l0.2,0.4l0.3,1.3l0.3,0.6l0.4-0.3
		l0.2-0.5l0.2-0.4l0.2-0.3l0.3-0.2l1-0.1l0.2,0l0.1,0.3l-0.2,0.2l-0.3,0.2l-0.3,0.1l-0.5-0.1l-0.2,0.1l-0.3,0.4l-0.1,0.4l-0.7,0.8
		l-0.2,0.5v0.4l0.3,1.1l0.1,0.3l0.2,0.1l0.2,0.1l0.1,0.1l0.1,0.2l0,0.1l-0.1,0.1l-0.2-0.1l-0.4-0.2l-0.3-0.3l-0.2-0.4l-1.1-5.8
		l0-0.4l0-0.2l-0.1-0.8l0-1l-0.1-0.4l-0.2-0.4l-0.2-0.3l-0.3-0.2l-0.2,0.2l0.1,0.6l0.2,0.6l0.1,0.3l-0.2,0.3l-0.2-0.1l-0.2-0.2
		l-0.2,0l-0.2,0.2l-0.1,0.2l-0.3,0.5l-0.2,0.6l0,0.5l0.3,0.8l-0.4,0.1l-0.6-0.2l-0.4,0.1l-0.2,0.2l-0.3,0.3l-0.2,0.4l0,0.3l-0.3,0.4
		l0,0.4l0.1,0.3l0.2,0.2l0.3,0.2l0.6,0.6l0.3,0.1l0.7-0.1l0.3,0l0.3-0.1l0.3-0.3l0.3-0.4l0.3-0.3l-0.2,0.5l-0.7,1.1l0,0.3l0.1,0.2
		l-0.1,0.4l-0.2,0.4l-0.1,0.2l0.1,0.2l0.2,0.3l0.1,0.3l-0.5-0.1l-0.9,0.1l-0.2,0.1l0.1,0.1l0,0.1l-0.2,0.4l0,0.2l1.3,0.9l0.1,0.4
		l0,0.3l0.1,0.3l0.2,0.2l0.2,0.1l0.2,0l0.3-0.2l0.2-0.1l0.2,0l0.6,0.3l0.2,0l0.5-0.3l0.2,0l0.4,0.1l1.2-0.2l0.9,0.2l0.8,0.5l1.6,1.7
		l0.4,0.2l0.1-0.1l0.4-0.4l0.2-0.1l0.9-0.2l0.4,0l0.1,0.5l-0.2-0.1h-0.2l-0.5,0.1h-0.4l-0.2,0l-0.4,0.3l-0.6,0.2l-0.4-0.1l-0.9-1.1
		l-0.4-0.1l-0.2-0.1l-0.2-0.5l-0.2-0.2l-0.4-0.2l-0.3-0.1l-0.5,0l-0.5,0.1l-0.4,0.2l-0.3,0.4l0,0.4l0.1,0.4l-0.1,0.4l0,0.1l0.2,0.7
		v0.3l0,0.6v0.3l0.1,0.4l0.3,1l0.4,0.5l0,0.5l-0.1,0.5l0,0.5l-0.1-0.2l0-0.2l0-0.5l0-0.1l0.1-0.3v-0.2l-0.1-0.1l-0.2,0l-0.1-0.1
		l0-0.1l0-0.4l0-0.1l-0.1-0.1l-0.1,0l-0.1-0.1l-0.1-0.2l0-0.2l0-0.2l0.1-0.2l0-0.2l0-0.8l-0.1-0.8l-0.1-0.2l-0.2-0.3l-0.1-0.2l0-0.2
		l0.1-0.2l0.1-0.3l-0.1-0.2l-0.3,0l-0.9-0.2l-0.2-0.1l-0.3,0.4l-0.8,0.8l-0.3,0.4l-0.7,1.9l-0.4,0.8l-0.5,0.5l0.1,0.2l0,1l0.1,0.3
		l0.2,0.5l0,0.3l0.2,0.1l0.7-0.2l0.1,0.1l-0.2,0.3l-0.2,0.2l-0.5,0.2l0.4,0.5l0.1,0.2l0.1,0.2l0,0.5l0,0.3l0.1,0.2l0.3,0.5l0.1,0.7
		l0.1,0.2l0.1,0.1l0.3,0.1l0.1,0.1l0,0.8l0,0.2l0.2,0.4l0.2,0.3l0.1,0.3l0,0.6l-0.2-0.4l-0.1-0.1l-0.1-0.1l-0.1,0.2l0.1,0.3l0.2,1
		l0,0.3l0,0.3l0.3,1.3l0.3,0.3l1.9,5.8l0.5,0.6l0.2-0.1l0.4-0.4l0.4-0.4l0.3-0.4l0.3-0.5l0.3-0.6l0.1-0.5l-0.2-0.2l0.1-0.2l0.3-0.1
		l0.3-0.5l0.4-1.1l0.3-0.6l0.3-0.3l0.9-0.5l0.2-0.1l0.2,0l0.2,0l0.2-0.1l0.2-0.2l0.2-0.3l0.2-0.2l0.3-0.2l0.4-0.1l0.4,0l0.3,0
		l0.3-0.1l0-1.2l0.2-0.5l0.2,0l0,1.1l0.1,0.4l0.6-0.2l0.6-1l0.3-1.2l-0.2-0.8l0.1-0.2l0.4,0.2l0.2,0.3l0.1,0.8l-0.2,0.3l-0.2,0.3
		l-0.3,0.7l0.7-0.8l0.3-0.2l0,0.4l-0.2,0.4l-0.6,0.7l-0.3,0.5l1.6-0.9l0.7-0.7l0.5-0.1l0.5-0.2l0.4-0.7l0.1,0.2l0.1,0.1l0.3-0.1
		l0.1-0.1l0.2-0.1l0.1,0l0.5-0.4l0.5-0.5l0.4-0.4l0.6-0.3l0.6-0.1l0.3,0.2l-0.4,0.1l-0.2,0.1l-0.1,0.2l-0.2,0.4l-0.1,0.2l-0.1,0.2
		l-0.9,0.8l-0.3,0.4l-0.1,0h-0.1l-0.1,0.1l-0.1,0.2v0.2l0.1,0.1l0.1,0.1l0.2,0l0.1,0.1l0.1,0.2l0.3,0.3l0.5,0.6l0.3,0.2l0.5,0.1
		l0.2,0.1l0.2,0.3l0,0.4l-0.1,0.1l-1.1-0.6l-1.2-1.1l-0.3-0.1l-0.3,0.4l-0.3,0.5l-0.3,0l-0.3-0.1l-0.4,0l-0.4,0.2l-0.4,0.4l-0.3,0.5
		l-0.1,1.1l-0.2,0.4l-0.7,0.7l-0.4,0.3l-0.1,0.2l-0.2,0.4l-0.1,0.3l0,0.3l0,0.2l0.1,0.1l0.1,0.3l0,0.5l0.1,0.4l0.4-0.1l0.2,0.7v0.4
		l-0.1,0.4l0.2,0.2l0.4,0.3l0.3,0.4v0.6l-0.1,0.3l0.1,0.2l0.1,0.2l0.2,0.1l0.1,0.1l0,0.5l0.1,0.2l0.2,0.1l0.2-0.1l0.2-0.1l0.2,0
		l0.5,0.3l0.2,0l0.3,0l0.3-0.1l0.3-0.2l0.2-0.4l0.3-0.2l0.3,0.3l0.5,0.7l1.5,0.4l0.9,0.5l0.4,0l-0.2,0.3l-0.1,0.3l0.1,0.2l0.1,0.1
		l0.1,0.2l0,0.7l0.1,0.2l0,0.8l0,0.1l0,0.2l0.2,0.7l0.1,0.2l0.2,0.1l0.4,0.5l0.1,0.2l-0.1,0.3l-0.3,0.5l-0.1,0.3l0,0.5l0.2,0.4
		l0.2,0.4l-0.1,0.6l-0.8-1l0-0.3l0.5-1.3l0.1-0.3l-0.1-0.4l-0.4-0.6l-0.1-0.3l-0.2-0.2l-0.4,0.1l-0.8,0.5l0.6-0.7l0.1-0.2l0.1-0.1
		l0.2-0.2l0.1-0.2l0-0.1l-0.1-0.3l0.1-0.5l-0.1-0.4l-0.2-0.3l-0.3-0.2l-1.5-0.6l-0.7-0.5l-0.4-0.8l-0.4,0.5l-0.4,0.2l-1.4-0.2
		l-0.2,0.1l-0.4,0.2l-0.2,0l-0.1,0.2l0.2,0.1l0,0.2l-0.1,0.3l-0.4,0.7l-0.2,0.3l-0.1,0l0-0.4l0-0.1l0.1-0.2l0.1-0.1l0.1,0l0.1,0
		l0-0.2l-0.1-0.2l0,0l-0.1-0.3l-0.4-0.7l-0.5-1.8l-0.3-0.5l-0.2-0.2l-0.2,0.1l0,0.2l0,0.3l0.1,0.4l-0.2,0.1l-0.1-0.7l-0.1-0.2
		l-0.4-0.4l-0.1-0.1l0-0.4l0.2-1.2l0-0.4l-0.3-0.2l-0.4,0.2l-0.4,0.3l-0.4,0.2l-0.4-0.2l-0.6-0.7l-0.4-0.2l-0.1,0.7l-0.3,1.2l0,0.5
		l0.1,0.3l0.1,0.1l0.2-0.1l0.3-0.2l0.3-0.1l0.2,0l0.4,0.2l-0.4,0.4l-0.8,0.4l-0.3,0.5l-0.1,0.3l0,0.2l0,0.2l-0.2,0.2l-0.2,0.3
		l0.1,0.2l0.4,0.2l-0.3,0.2l-0.4,0.3l-0.3,0.4l-0.1,0.5l0.1,0.8l0.1,0.4l0.2,0.2l0.1,0.2l0.8,2l0.2,0.3l0.4-0.1l0-0.4l0-0.3l0.1-0.2
		l0.1-0.1h0.1l0.1,0.1l0,0.2l0,0.2l0.2,1.9l0.1,0.3l0.2,0.2l0.9,0.3l0.2,0.2l-0.3,0l-0.8-0.2l-0.2,0.1l-0.1,0.5l0.2,0.2l0.3,0.1
		l0.1,0.3h-0.2l-0.2,0l-0.2,0l-0.2,0.2l-0.1,0.3l0,0.5l0,0.1l-0.2,0.5l-0.3,1l-0.2,0.5l-0.2,0.9l-0.2,0.5l-0.2,0.2l0,0.1l0,0.8
		l0.1,0.2l0.1,0.2l0.1,0.2l-0.1,0.6l0.1,0.2l0.9,0.4l0.8,0.8l0.4,0.2l0.4,0.1l0.2-0.1l0.2-0.1l0.2-0.1l0.2-0.2l0.7-0.3l0.3-0.2
		l0.4-0.4l0.4-0.5l0.2-0.5l0.1,0l0,0.4l0.2,0.1l1,0.1l0.1,0l0,0.2l-0.1,0.1l-0.1,0.1l-0.6-0.1l-0.6,0.1l-0.5,0.3l-0.4,0.7l-0.2,0.5
		l-0.2,1l-0.2,0.5l-0.1,0.3l-0.1,0.1l-0.1,0.1l-0.3,0.4l-0.1,0.1l-0.1,0.1l-0.1,0.3l-0.1,0.2l-0.6,0.3l-0.2,0.2l-0.1,0.2l-0.1,0.2
		l-0.1,0.2l-1.1,1l-0.3,0.4l-0.1,0.3l-0.2,0.8l0,0.1l-0.2,0.5l-0.1,0.7l-0.2,0.4l-0.3,0.4l-0.3,0.3l-0.2,0.2l-0.1,0.2l-0.1,0.2
		l-0.2,0l-0.1-0.1l-0.1-0.1l-0.1-0.1l-0.2,0l-0.4,0.2l-0.3,0.4l-0.2,0.5l-0.1,0.5l-0.6,0.1l-0.3,0.1l-0.3,0.3l0.1,0.2l0.2,0.1
		l0.4,0.2l0.1,0.1l0.1,0.2l0.1,0.2l0.2,0.1l0.3-0.1l1.1-0.8l1.2-1.3l0.2-0.1l0.3-0.1l0.2-0.1l0.2-0.2l0.2-0.3l0.1-0.2l1.3-1.3
		l0.1-0.2l0.1-0.1l0.1-0.1l0.2,0l0.2,0l0.2-0.1l0.4-0.3l0.4-0.1l1.5,0.2l0.7-0.2l0.3,0l-0.3,0.5l-0.2,0.2l-0.2,0.2l-0.2,0l-0.4,0
		l-0.2,0.1l0,0.1l0,0.3l-0.1,0.2l-0.2,0l0-0.1l-0.1-0.2l-0.1-0.2l-0.2-0.2l-0.7,0l-0.7,0.5l-0.5,0.8l-0.2,1l-0.2,0.1l0,0.4l0.1,0.3
		l0.1,0.3l-0.1,0.8l0.1,0.3l0.3,0.5l1.1-0.7l0.5-0.5l0.3-0.5l0-0.4l-0.1-0.2l0-0.2l0.1-0.4l0.2-0.3l0.2-0.2l0.1-0.2l0-0.2l0.2-0.2
		l0.3-0.3l0.2,0l0.2,0.2l-0.1,0.2l-0.2,0.2l-0.2,0.1l-0.2,0.2l-0.2,0.1l-0.2,0.2l-0.2,0.3l0,0.2l0.1,0.9l0.3,0.9l0,0.4l-0.3,0.3
		l-0.2,0l-0.4-0.1l-0.2,0.1l-0.2,0.2l-0.1,0.2l-0.1,0.2l-0.2,0.1l-0.1,0.3l0,0.3l0,0.3l0.3,0.3l-0.1,0.3l-0.1,0.3l-0.1,0.3l0,0.6
		l0.1,0.2l0.3-0.1l0.4-0.3l0.2-0.1l0.2-0.1l0.2-0.1l0.1-0.2l0.1-0.3l0.2-0.3l0.3-0.4l0.7-0.7l0.4-0.3l0.4,0l-0.6,0.6l-0.2,0.2
		l-0.1,0.2l-0.2,0.5l-0.2,0.2l0.3,0.3l0.4-0.1l0.4-0.2l0.3-0.1l0.3,0.2l0.2,0.2l0.2,0l0.3-0.5l0.4-0.2l0.8,0l0.9-0.2l0.6-0.6
		l0.5-0.5l2.9-0.2l0.3-0.2l0.3-0.3v-0.1l-0.1-0.2l0-0.2l0.1-0.3l0.1-0.2l0.2-0.1l0.3-0.1l0.1-0.4l0.3-0.1l0.3,0l0.2-0.1l1.3-0.6
		l1.8-0.5l1.5-1.1l0.2-0.3l0-0.2l-0.1-0.4l0-0.1l0.2-0.6l0.1-0.2l0.1-0.9l-0.2-1.4l0-0.7l0.1,0.1l0.1,0.2l0,0.2l0.1,0.2l0.5,0.8
		l0.2,0.5l-0.2,1.1l0,1l-0.1,0.5l-0.3,0.5l-0.8,0.5l-0.3,0.4l-0.4,0.6l-0.4,0.2l-0.9-0.1l-0.4,0.1l-0.7,0.5l-0.7,0l-0.4,0.2
		l-0.4,0.2l-0.9,0.6l-0.2,0.3l-0.4,1.3l0,0.2l0.1,0.1l0.1,0.2l0.1,0.8l-0.3,0.3l-0.1,0.3l0.2,0.5v0.1l0,0.1l0,0.2l0.1,0.2l0.1,0.1
		l0.3,0.1l0.1,0.1l1,0.7l0.6,0.2l0.6-0.1l0.5-0.2l0.5-0.1l2.1,0.1l0.4,0.3l0.1,0.7l-0.6-0.2l-0.6-0.1l-0.7,0l-0.3-0.1l-0.1,0
		l-0.1,0.2l-0.1,0.1l-0.5-0.1l-0.1,0l-0.4,0.3l-0.1,0.4l0,0.4l0.1,0.7l0,0.3l-0.1,0.3l-0.3,0.4l0.1,1l1,1.5l0.4,0.9l0.1,0.3l0.1,0.7
		l-0.1,0.5l0.1,0.2l0.1,0.2l0.1,0.2l0.1,0.5l-0.1,0.4l-0.2,0.5l-0.2,0.6l0-0.4l0-1l-0.1-0.3l-0.2-0.7l-0.1-0.3l-0.2-0.7l-1.2-2.7
		l-0.3-1.1l0.3-0.5l0.1-0.5l-0.1-0.5l-0.3-0.9l-0.2-0.3l-0.3-0.2l-0.8-0.3l-0.7-0.5l-0.4-0.1l-0.3,0.1l-1.4,0.9l-0.4,0.2l-0.4,0.1
		l-1.2-0.2l-0.4,0.1l-0.3,0.4l-0.2,0.1l-0.3,0.1l-0.4,0l-0.2,0l-0.1,0.2l0,0.3l0.1,0.1l0,0.2l0.1,1.4l-0.5,0.2l-0.6-0.1l-1.3-0.4
		l-0.2,0.1l-0.7,0.5l-0.7,0.3l1.3-1.4l0.2-0.1l0.8,0.4l0.3,0.1l0.3-0.1l0.3-0.4l0.2-0.4L224,341l-0.2-0.2l-0.3-0.1l-0.6,0l-0.7,0.2
		l-0.7,0.3l-0.6,0.5l-0.4,0.6l-0.8,1.6l-0.5,0.5l0,0.2l-0.4,0.1l-0.4-0.1l-0.8-0.4l-0.3,0l-0.7,0.3l-0.6,0.1l-0.3,0.3l-0.3,0.4
		l-0.3,0.4l-0.1,0l-0.1,0l-0.1,0.1l0,0.1l0,0.3l0,0l-0.4,0.5l-0.1,0.1l-0.1,0.3l0,0.4l0,0.2l-0.3,0.7l0,0.2l0,0.2l0,0.2l-0.1,0.2
		l-0.2,0.2l-0.1,0.2l-0.2,0.5l-0.2,0.6l0.1,0.3l0.1,0.2l0.1,0.4l-0.1,0.5l-0.2,0.4l0,0.3l0.4,0l-0.1,0.4l0,0.3l0,0.3l-0.1,0.3
		l-0.1,0.1l-0.2,0.1l-0.1,0.1l0,0.3l0.1,0.1l1.2,0.2l0.3,0.1l0.2,0.2l0.1,0.4l0.1,0.2l-0.1,0.2l-0.4,0l-1-0.4l-0.4,0.2l0,0.2
		l0.2,0.9l0.2,0.1l0.7,0.2l0.4,0l0.4-0.2l1.3-1l0.2-0.4l0-0.4l-0.2-0.4l0.1-0.2l0.3-0.2l0.5-0.7l0.3-0.3l1.2,0l0.3-0.2l0-0.4
		l-0.3-0.2l-0.8-0.2l-0.3-0.2l-0.6-0.6l-0.3-0.2l0.1-0.2l0.5,0l0.5,0.1l0.5,0.2l0.4,0.4l0.4,0.3l0.4-0.3l0.7-1.1l0.2-0.3l0.1,0
		l0.1,0.1l0.7,0.2l0.2-0.1l0.2-0.4l0.2-0.4l0.4-0.5l0.4-0.4l0.3-0.3l0.1,0.4l-1.1,1.8l-0.3,0.2l-0.2,0l-0.6,0l-0.2,0.1l-0.1,0.2
		l-0.3,1l0.1,0l-0.1,0.1l-0.1,0.1l-0.1,0.1l0.1,0l0,0.1l-0.1,0.1l-0.1,0l0.2,0.5l0.6,0.2l0.6-0.2l0.3-0.6l0.3,0.2l0.5,0.8l0.4,0.3
		l2.6,0.5l5.6,3.2l0.6-0.6l0.2-0.1l0.2,0l0.2-0.1l0.2-0.3l0.1-0.4l0-0.4l0.1-0.5l0.3-0.5l0-0.1l0-0.1l0-0.2l0,0.3l0.1,0.3l0,0.3
		l-0.1,0.3l0.1,1.4l-0.2,0.1l-0.2,0.2l-0.2,0.2l-0.1,0.2h-0.1l-0.2-0.1l-0.1,0.1l-0.1,0.3l-0.1,0.1l-0.1,0.1l-0.4,0.1l-0.5-0.1
		l-4.8-2.4l-4.2-1.2l-2.6-0.2l-0.4,0.1l-0.4,0.2l-0.3,0.4l-0.2,0.5l-0.1,0.5l-0.2,0.5l-0.2,0.3l-0.2,0.1l-0.2,0.1l-0.2,0.1l-0.1,0.2
		l-0.1,0.3l-0.1,0.2l-0.2,0l-0.4-0.1l-0.4,0.1l-0.4,0.2l-1.1,0.9l-0.3,0l-0.4-0.1l-0.4,0l-0.5,0.1l-0.5,0.2l-0.3,0.3l0,0.5l0.3,0.4
		l0.5,0.2l0.3,0l0.4-0.1l0.5,0.2l0.8,0.5l0.5,0.1l0.9-0.2l0.5,0.1l0.3,0.2l-0.2,0.2l-0.4,0.2l-0.4,0.1l-0.1,0.2l3.4,1.7l0.5,0
		l1.1-0.3l0.4,0l0.3-0.2l0.9-0.8l0.4-0.3l-0.1,0.4l-0.3,0.5l-0.3,0.5l-0.3,0.3l-0.1,0l-0.6,0.1l-0.8,0.3l-2.5-0.5l-0.1-0.1l-0.2-0.3
		l-0.1-0.1l-2.3-1.2l-0.7,0.2l-0.4,0.2l-1.8-0.2l-0.4,0.1l-0.3,0.1l-0.4,0.1l-0.1,0.3l-0.2,0.3l-0.1,0.3l0.1,0.4l-0.1,0.5l1,1.4
		l-0.1,0.5l0.3,0.5l0.4,0.2l1.4,0.2l0.5-0.1l0.4,0.1l0.2,0.4L214,367l-0.4,0.1l-0.4,0.5l-0.4,0.7l-0.4,0.5l-0.1,0.4l0.3,0.5l0.4,0.4
		l0.4,0.1l-0.1,0l0.2,0l0.1,0.1l0.1,0.1l0.1,0.2l-0.1,0.1l-0.2,0.1l-0.4,0.1l0.2,0.4l1.3,1.2l0.3,0.2l0.4,0.2l0.1,0l0.3-0.1l0.1,0.1
		l-0.1,0.5l0.2,0.6l0.1,0.2l1.2,0.7l0.7,1.2l0.3,0.3l0.3,0.1l0.4-0.1l1-0.5l0.4-0.1l0.2,0l0-0.1l-0.2-0.2l-0.2-0.2l-0.8-0.3
		l-0.4-0.2l-0.7-0.6l-0.6-0.4l-0.4-0.3l-0.2-0.4l0.3-0.3l0.2,0.2l0.2,0.1l0.4,0.1l0.4,0.3l0.2,0.2l0.1,0.2l0.3,0.4l2,0.7l0.2-0.1
		l0.1-0.2l0.3-0.2l0.2-0.1l0.2-0.1l0.2,0.1l0.1,0.3l0.1,0.5l0.1,0.2l0.5,0.3l0.1,0.2l0.1,0.2l0,0.2l0.3,0.4l0.3,0.2l0.3,0.1l1.8-0.2
		l0.3-0.1l0.3-0.3l0.4-0.2l0.3-0.3l0-0.8l0.1-0.6l0.4-0.6l0.8-1l0.1,0l-0.1,0.4l-0.3,1.3l-0.1,1.3l0.3,0.5l0.7,0.6l2.4,1.2h0.3
		l0.7-0.3l0.2,0l0,0.4l-0.3,0.3l-0.4,0.2l-0.3,0l-1.4-0.8l-0.7,0l-1.6-0.8l-0.2-0.2l-0.1-0.2l-0.1-0.1l-1.1,0.6l-0.3,0.2l0,0.2
		l-0.2,0.4l0,0.3l0.1,0.2l0.3,0.3l0.1,0.2l0.3,0.3l0.5,0l1.4-0.4l0.4,0l0.8,0.3l0.7,0l0.2,0.1l0,0l0.2,0.1l0,0.1l-0.1,0.2l0,0.2
		l0.1,0.1l0.3,0l0.4-0.2l0.3-0.1l-0.1,0.4l-0.3,0.5l-0.3,0.4l-0.2,0.4l0.1,0.5l0.4,0.3l0.4,0l0.4-0.1h0.4l0.7,0.2v0.2l-0.5,0.2
		l-1.3,0.3l-0.5,0.3l-0.4,0.2l-0.7,0l-0.4,0.3l0.1,0.5l0.4,0.2l2.1,0.4l0.2,0l0.6-0.3l0.2-0.1l0.4,0.1l0.1,0.2l0,0.3l0.1,0.3
		l0.2,0.1l0.3,0.1l0.3,0l0.2-0.1l0.4-0.2l1.8,0.5l-0.1,0.2l0.5-0.1l0.9-0.8l0.5-0.3l0.3,0l0.2,0.1l0.2-0.1l0.2-0.4l0-0.2l-0.3-0.6
		l0-0.2l0.1-0.4l0.2-0.4l0.1-0.2l0.2-0.2l0.3-0.1l0.3-0.1l0.2,0l0.5,0.1l0.4-0.1l0.4-0.2l0.4-0.4l-0.1-0.2l-0.3-0.4l-0.1-0.3v-1.4
		l0.1-1.3l0.1-0.5l0.2-0.6l0.6,1.1l0.1,0.5l-0.2,1.6l0,0.5l0,0.2l0,0.2l0,0.3l-0.1,0.3l-0.2,0.3l-0.2,0.1l-0.2,0l-0.2,0.1l-0.4,0.5
		l-0.2,0.3l-0.2,0.1l-1.1-0.3l-0.3,0.1l-0.3,0.4v0.6l0.2,0.5l0,0.5l-0.4,0.5l-0.2,0.1h-0.5l-0.3,0.1l-0.2,0.1l-0.1,0.2l-0.6,0.8
		l-0.2,0.2l-0.2,0l-0.2-0.1l-0.2-0.2l-0.1-0.1l-1.3-0.2l-1.6,0.1l-0.4-0.1l-1.1-0.8L232,386l-1.3,0.1l-1.6-0.5l-0.4,0l-0.4,0.1
		l-0.2,0.1l0.1,0.1l0.1,0.1l0,0.5l0.1,0.2l1.3,0.4l0.5,0l1.3-0.2l0.5,0.1l0.9-0.1l0.4,0.1l0.2,0.5l-0.4,0.2l-0.3,0l-1.4-0.2
		l-0.5,0.2l-0.1-0.1l-0.1-0.1l-0.1-0.1l-0.2,0l-0.5,0.1l-0.6-0.1l-0.1,0l-0.2,0.3l-0.1,0.4l-0.2,0.8l-0.3-0.6l-0.2-0.2l-0.3,0.1
		l-0.3,0.1l-0.3,0l-0.1,0.1l0.2,0.4l0.2,0.3l1.6,0.9l0.3,0.1l0.4-0.1l0.3,0.7l0.7,0.4l0.9,0.2l1.6-0.1l0.2-0.1l0.3-0.3l0.1-0.1
		l0.4,0l0.4,0.2l0.6,0.5l-0.3,0.2l-0.5-0.1l-0.3,0.3l0.3,0.3l0.5,1.4l0.1,0.2l0.1,0.1l0.5,0.1l0.2,0l0.2-0.1l0.2-0.1l0.4-0.3
		l0.1-0.2l0.2-0.3l0-0.2l0-0.3l0.1-0.3l0.7-0.1l0.3-0.4l0.3-0.5l0.3-0.4l0-0.5l0.3-0.8l0.5-0.6l0.5-0.2l0.5-0.1l0.5-0.3l0.5-0.2
		l0.4,0.3l-0.2,0.1l-0.3,0.3l-0.2,0.1l-0.2,0.1l-0.5,0.1l-0.4,0.2l-0.3,0.2l-0.3,0.3l-0.3,0.4l-0.4,0.7l0,0.2l0,0.4l0,0.3l-0.1,0.3
		l-0.5,0.8l-0.2,0.3l-0.3,0.2l-0.3,0.1l-0.1,0.2l0.1,0.4l0.3,0.2l0.4,0.1l1.4,0.2l0.4-0.1l0.4-0.2l0.2-0.2l0.2-0.3l0.2-0.3l0.1-0.2
		l0.5-0.1l-0.1,0.6l-0.2,0.8l0.1,0.5l0.2,0.1l0.1,0.1l0.1,0l0.3-0.2l0.5-0.5l0.3-0.2l0.2,0.1l0,0.2l-0.1,0.2l-0.1,0.2l-0.1,0.2
		l0,0.2l0.1,0.4l0.1,0.7l0.1,0.2l0.3,0.1l0.4,0l0.5-0.2l0.4-0.4l0-0.5l0.6-0.5l1.2-0.5l0.4-0.6l1.2-0.5l0.1-0.2l0.1-0.1h0.1v0.1
		l0,0.1l0,0.1l0.2,0l0.1,0l0.6-0.5l0.1-0.2l-0.1-0.2l0-0.4l0.1-0.3l0.5-0.9l0.5-0.7l0-0.4l-0.2-0.3l-0.3-0.2l0-0.1l0.2-0.7l0-0.2
		l-0.1-0.2l-0.3-0.2l0.3-0.2l0.7-0.2l0.3-0.1l1-0.8l0.2-0.2l0.2-0.5l0.2-0.2l0.2,0l0.3,0.1l0.2,0.2l0.1,0.3l0,0.9l-0.4,0l-0.3,0.2
		l-0.7,0.6l-0.2,0.2l-0.5,0.2l-0.5,0.4l-0.1,0.1l-0.1,0.2l0,0.2l0.1,0.2l0.8,0.8l0,0.6l-0.2,0.3l-0.7,0.5l-0.3,0.5l-0.4,1l-0.3,0.4
		l-0.1,0.1l-0.1,0.5l0,0.2l-0.1,0.1l-0.3,0.4l-0.1,0.1l-0.8,0L248,395l-0.3,0.6l-0.3,0.2l-1.2,0l-0.2,0.1l-0.1,0.1l-0.1,0.2
		l-0.3,0.6l-0.2,0.3l-0.1,0.3l0,0.2l0,0.1l-0.2,0.9l-0.2,0.1h-0.2l-0.1,0.1l-0.2,0.3l-0.1,0.7l0.3,0l0.5-0.2l0.8-0.2l0.3-0.6
		l0.1-0.7l0-0.6l0.3,0.2l0.2,0.5l0.1,0.6l-0.1,0.6l-0.2,0.3l-0.2,0.2l-0.1,0.2l0.1,0.4l0.1,0.1l0.7,0.2l0.3,0.2l0.3,0.2l0.3,0.2
		l0.4,0l1.2-0.4l0.2-0.1l0.2-0.2l0.9-0.6l0.3-0.5l0.3-0.2l1.3,0.6l1.4,0.1l1.5-0.3l0.9-0.6l0.5-0.2l0.1,0.3l-0.2,0.2l-1.2,0.7
		l-0.4,0.1l-0.9,0.1l-0.3,0l-0.2,0l-0.4,0.3l-0.2,0.1l-0.2-0.1l-0.4-0.3l-0.4-0.1l-0.5-0.1l-0.5,0.1l-0.3,0.4l-0.1,0.3l-0.1,0.1
		l-0.6,0.3H250l0,0.1l0,0.3l0.2,0.3l0.3,0.3l0.3,0.4l0,0.4l0,0.3l0.2,0.5l0,0.3l-0.1,0.2l-0.5,0.6l0,0.4l-0.3,0.4l-0.5,0.3l-0.4,0.1
		l-0.1,0.5l-0.2,0.1l-0.3,0l-0.3,0.2l0.3,0.5l0,0.2l-0.1,0.2l-0.2,0.3l-0.2,0.2l-0.1,0.1l-0.3,0.1l-0.1,0.5l0,1l-0.2-0.4l-0.3-1
		l-0.3-0.3l-0.2-0.3l-0.2-0.6l-0.2-0.3l-0.3,0.4l0,0.4l0.4,1.9l0.3,0.8l0.7,1l0.2,0.1l0.1,0.2l0.1,0.5l0.1,0.2l0.3,0.2l0.3,0.4
		l0.5,1.2l0,0.2l-0.1,0.6l0,0.3l0.1,0.2l0.5,0.4l0.6,0.7l0.4,0.2l0.8,0.1l0.4,0.1l0.2,0.7l0.3,0.3l0.3-0.1l0.1-0.6l0.4-0.1l1.3,0.4
		l0.4,0l0.8-0.1l0.4-0.2l0-0.4l0.1-0.2l0.2-0.1l0.3,0l0.2-0.1l0-0.3l-0.1-0.3l-0.1-0.2l0.9-1.1l0.2-0.1l0.2,0.2l-0.1,0.3l-0.2,0.3
		l-0.2,0.2l0,0.2l0.1,0.3l0,0.1l0,0.2l0,0.1l-0.1,0.1l0,0.1l-0.1,0.6l0,0.3l0.2,0.2l0.1,0l0.1,0l0.1,0l0.1,0l0,0l0.5-0.2l0.2-0.2
		l0.4-0.5l0.2-0.2l-0.1-0.5l-0.4-0.6l-0.2-0.4l0-0.4l0-0.5l0.1-0.5l0.2-0.5l0.2-0.4l0.3-0.2l2.1-0.3l0.7-0.3l0.4-0.3l0.2-0.3
		l-0.1-0.1l-0.3-0.3l-0.1-0.2l0-0.2l0-0.4l0-0.1l-0.2-0.3l-0.6-0.5l-0.3-0.3l-0.1-0.3l-0.1-0.4l-0.1-0.4l0-0.4l0.3,0.2l0.5,0.8
		l0.6,0.4l0.8,0.9l0.1,0.3l0.3,1.1l0.3,0.3l-0.1,0.2l-0.4,0.4l-0.8,0.6l-0.2,0l-0.8-0.1l-0.2,0l-0.4,0.3l-0.7,0.1l-0.4,0.4l-0.2,0.5
		l0,0.6l0.2,0.3l0.3,0.2l0.2,0.3l-0.1,0.5l-0.2,0.9l-0.2,0.5l-0.3,0.4l-0.8,0.6l-0.3,0.4l-0.1,0.5l0.1,0.2l0.4,0.6l0.5,1.7l0.1,0.5
		l-0.1,0.5l0.2,0.1l2.2,0.3l2.5-0.6l-0.5,0.7l-0.8,0.3l-0.9,0.1l-0.9-0.1l-0.2,0.1l-0.2,0.1l-0.2,0.1l-0.6-0.1l-0.2,0l-0.3,0.3
		l-0.1,0.5l0,0.5l0.1,0.5l-0.2,0.3l-0.2,0.3l-0.2,0.1l-0.2-0.3l-0.1-0.4l0.1-1l0-0.4l0.1-0.3l0.2-1l-0.1-0.1l-0.2-1l-0.5-1.4l0-0.3
		l0-0.3l-0.1-0.2l-0.2-0.2l-0.6-0.1l-0.3,0l-0.3,0.1l-0.2,0.3l-0.5,0.7l-0.2,0.1l-0.3,0.1l-0.2,0.4l-0.1,0.5l0,0.4l0.1,0.2l0.2,0.4
		l0.1,0.2l0.1,1.5l0.1,0.6l0.1,0.3l0.1,0.1l0.1,0.1l0.2,0.2l0.1,0.2l0,0.2l0,0.2l0,0.2l0.2,0.3l0.3,0.2l0.9,0.4l0.4,0.3l3.1,3.1
		l0.3,0.1l0.3,0l0.3-0.1l0.4-0.3l0.3-0.5l0-1.1l0.3-0.5l-0.2-0.4l0.3-0.2l0.8-0.2l0.2-0.1l0.5-0.1l0.1-0.1l0.2-0.1l0.3,0.1l0.4,0.2
		l0.1-0.1l0.3-0.3l0.2-0.1l0.2,0l0.4,0.2l0.4-0.2l0.2,0l0.2-0.1l0.2-0.4l0.1-0.3l0.1-0.7l0.2-0.2l0.2-0.2l0.2-0.1l0.2,0l0.2-0.1
		l0.3-0.2l0.4-0.3l0.2,0.4l-0.4,0.4l-0.9,0.4l0,0.4l-0.1,0.3l-0.2,0.2l-0.2,0.1l0,0.1l0,0l0.1,0l0,0l-0.2,0.2l-0.5,0.7l-0.4,0.8
		l-0.1,0.3l-0.4,1.8l-0.1,0.4l-0.2,0.4l-0.3,0.3l-0.6,0.2l-0.3,0.3l0.1,0.2l0,0.3l0,0.4h0.7l0.3,0.1l2.8,1.9l1.5-0.1l1.5-1.7
		l0.2-0.3l0.2-0.8l0.1-0.2l0.1,0.1l0.1,0.2v0.2l-0.2,0.5l-0.2,0.4l-1.1,1.7l-0.7,0.7l-0.8,0.3l-0.7-0.4l-0.2-0.2l-0.3-0.2l-0.3,0
		l-0.2,0.1l-0.1-0.2l-0.3,0.1l-0.3-0.1l-0.2-0.2l0-0.3l-0.1-0.2l-0.3-0.1l-0.2,0.2l0.2,0.6l-0.6-0.1l-0.7-0.3l-0.5,0l0,0.7l0.3,0.5
		l0.5,0.5l0.4,0.6v0.3l-0.2-0.3l-0.3-0.2l-0.3,0l-0.2,0.4l-0.2,1.1l-0.3,0.2l-0.1,0.2l0.6,0.6l0.7,0.2l0.8-0.1l0.8-0.4l-0.4,0.6
		l-0.5,0.3l-1.1,0.5l-0.3,0.3l0,0.2l0.2,0.2l0.2,0.4l0,0.4l0,0.4l0,0.3l0.9,0.3l0.1,0l0-0.6l0.1-0.5l0.4-0.3l1.6-0.4l0.4,0l0.4,0.1
		l0.4,0.2l0.2,0.2l0,0.3l-0.3,0.3l-0.1,0.5l0.2,0.6l0.4,0.4l0.3,0l0.4-0.1l0.2,0.5l0,0.2c8.7,2.6,17.3,5.1,26,7.5
		c8.7,2.4,17.3,4.7,26,6.9c8.6,2.2,17.3,4.3,25.9,6.3c8.6,2,17.2,3.9,25.8,5.7c2.4,0.5,4.9,1,7.3,1.5l0.2,0
		c8.7,1.8,17.4,3.5,26.1,5.1c2.5,0.5,4.9,0.9,7.4,1.4l0.1-0.2l0.2-0.2l0.2-0.1l0.1-0.2l0.1-0.3L416,478.3 M208.3,258.3l-0.4,0
		l-1.3,0.4l-0.2,0l-0.2-0.1l-0.2,0l0,0.3l0.1,0.3l0,0.1l0.1,0.3l0.2,0.5l0,0.2l0.1,0.2l0.2,0l0.2-0.1l0.1-0.1l0.3,0.4l0.2,0.1
		l0.2-0.3l0.1-0.2l0.4-0.6l0.2-0.2l0-0.7l0-0.3L208.3,258.3 M208.5,261.6l0.2,0l0.5,0l0.2,0l0.4,0.1l0.2,0l0.8-0.1l0.4-0.2l0.4-0.4
		l0.1-0.1l0.2-0.3l0.1-0.1l-0.2-0.1l-0.1,0l0.1-0.1l0.1-0.1l0.1-0.1l0.1-0.2l-0.4,0.1l-1,0.7l-0.8,0.1l-0.4,0.2l-0.8,0.6
		L208.5,261.6 M230.4,381.7l0-0.3l-0.1-0.3l-0.3-0.5l-0.3-0.1l-0.6,0.1l-0.3,0l-0.6-0.2l-0.3,0l-0.6,0.2l-1.1,0.7l-0.6,0.3l-0.3-0.2
		l-0.5,0.1l-0.9,0.6l-0.1,0.3l-0.2,0.2l-0.2,0.1l-0.3,0l0.1,0.5l0.4,0.2l0.9,0.2l0.2,0.1l0.3,0.4l0.2,0.1l0.2,0l0.2-0.1l0.1-0.2
		l-0.1-0.3l0.4,0l1.2,0.9l1,0.3l0.5-0.1l0.1-0.5l0.7-0.7l0.3-0.2l0.9-0.1l0.2-0.2l0-0.3l-0.3-0.5l0-0.4L230.4,381.7 M224,385.5
		l0.1,0.1l0.2,0.1l0.6-0.1l0.2,0.1l0.2,0.1l0.9-0.1l0.3-0.3l-0.2-0.4l-0.3-0.1l-1.1-0.3l-1.3-0.1l-0.3,0.2l0.2,0.2l0.1,0l0,0.1
		l0.1,0.1l0.2,0.2l0.1,0.1L224,385.5L224,385.5 M225,379.1l-0.3-0.5l0-0.1l0-0.1l-0.1-0.1l-0.1-0.1h-0.2l-0.2,0.1l-0.2,0.1l-0.3-0.1
		l-1.3-0.5l-0.3,0L222,378l-0.3,0.3l-0.1-0.2l0-0.4l-0.1-0.3l-0.6-0.2l-0.3,0l-0.2,0.1l-0.2-0.1l-0.1,0.2l0.2,0.4l0.2,0.8l0.8,0.6
		l0.2,0.1l0.1,0l0.1-0.1l0.1-0.1l0-0.1l0.1,0.1l0.1,0.3l0.1,0.1l1.2-0.1l0.6,0.1l0.4-0.1l0.2,0l0.1,0.1l0.3,0.2l0.2,0.1l-0.1-0.4
		L225,379.1 M262.5,432.7l-0.1,0.2v0.2l0.1,0.1l0.5,0.2h0.2l0.3-0.1l0.3-0.2l0.2-0.2l0.2-0.2l0.1-0.2l-0.1,0l0-0.1l0.1-0.1l0.2-0.2
		l0.2-0.3l-0.1-0.2l-0.4,0l-0.4,0l-0.3,0.1l-0.7,0.4l-0.2,0.3L262.5,432.7 M224.9,387.4l0.1-0.1l1.7,0.4l0.1,0l0.4-0.2l0.2-0.1
		l0.2,0.1l0.2,0.1l0.2,0l0.2-0.3l-0.3-0.2l-0.2-0.3l-0.2-0.7l-0.6-0.2l-0.2,0l-0.2,0.1l-0.4,0.2l-0.1,0l-3.7-0.3l-0.7,0.1l2.6,1.4
		L224.9,387.4 M234.5,392.6l-0.3-0.5l-0.2-0.1l-0.8-0.1h-0.7l-0.9,0.1l-0.2-0.1l-0.2,0.1l0.1,0.4l0.6,0.4l0.5,0.2l0.7,0.4l0.3,0.1
		l0.3,0l0.5,0l0.1,0l0.2-0.1l0-0.2l-0.1-0.2l-0.1-0.2l0-0.1L234.5,392.6 M209.1,372.9l0.1,0.2l0.1-0.1l0-0.2l0-0.1l0.1-0.1l0-0.1
		l0,0l0-0.1v0l0-0.2l-0.2-0.1l-0.1-0.1l-0.1,0.1l0,0.2l0,0.3l0,0.3L209.1,372.9 M243.4,409.1l0.1,0.1l0,0.2l0.1,0.1l0.1,0.1l0.3,0.1
		l0.2-0.3l0.2-0.1l-0.2-0.3l-0.1-0.1l-0.2,0l-0.2-0.1l-0.1-0.1l-0.1-0.1l-0.1,0l0,0.1h0l-0.1,0.3L243.4,409.1 M246.9,414l0.2-0.1
		l0.3-0.3l0-0.3l-0.1-0.2h-0.1l-0.3,0.3l-0.2,0.4l0,0.3l0.2,0L246.9,414 M254.6,426.3L254.6,426.3L254.6,426.3l-0.1,0.2l0.1,0.1
		l0,0.2l0,0.2l0.1,0.2h0.1l0.1-0.1l0.1,0l0,0l0,0l0,0l0-0.1l0-0.1l0,0l0-0.1l0-0.1l0,0l0-0.1l0,0l-0.1-0.2l-0.1-0.3l-0.1-0.1l0,0
		v-0.1l-0.1,0.1l0,0l0,0l0,0.1L254.6,426.3 M262.4,431l-0.1,0.1l-0.3,0.2l-0.3,0.1l-0.1,0.1v0l0,0l0.1,0l0.4-0.1l0.3,0.1l0.1,0.1
		l0.2,0l0.1-0.1v-0.2l-0.2-0.2L262.4,431 M229.5,434.1L229.5,434.1l0.1-0.1l0,0.1l0.1,0.1l0.1-0.1l-0.1-0.1l0,0v0l-0.1-0.1l-0.1-0.1
		l-0.1-0.1l-0.1-0.1l-0.1-0.1l-0.1-0.1l0,0.1v0.1l0,0.1v0.1l0.1,0l0.1,0l0,0.1v0l-0.1-0.1h-0.1l0,0.1L229.5,434.1L229.5,434.1
		L229.5,434.1L229.5,434.1 M228.9,433.7l-0.1,0l0,0.1l0,0.1l0,0l0.1,0h0l-0.1,0.1l-0.1,0.1c0,0,0.1,0,0.1,0l0.1,0l0.2,0l0.1-0.1
		l-0.1-0.2L228.9,433.7 M227.6,433.9l0,0.2l0.1,0v0.1l0,0.1l0,0.1l0,0l0,0l0.1-0.2l-0.1-0.2L227.6,433.9 M228.1,434.8l0,0.1l0,0.1
		l-0.2,0l0,0.2l0.1,0.1l0.2,0l0-0.1l-0.1-0.3L228.1,434.8 M229.5,436.2L229.5,436.2l-0.1,0.2l0.1,0.1l0,0.1l0,0.1l0-0.1l0-0.1
		l0.1-0.2l-0.1-0.2L229.5,436.2 M259.3,446.7l0.1-0.1l0-0.1l0.1,0l0-0.3l-0.2-0.2l-0.1-0.1l-0.1-0.2l-0.2,0l0,0l-0.1-0.1l0,0.1
		l0,0.1l0,0.1l0,0.3l0.1,0.1l0.1,0.2l0.1,0.2l0.1,0l0.1,0L259.3,446.7l-0.2-0.1L259.3,446.7L259.3,446.7 M258.3,449.2L258.3,449.2
		L258.3,449.2l0.2-0.1l0.1-0.1l0-0.1l0-0.1l-0.1,0l-0.1-0.1l-0.1,0.1l-0.1,0.1l0,0l0,0.2L258.3,449.2L258.3,449.2 M259.5,449.1
		l-0.2-0.1l-0.1,0l-0.1,0l0,0.1l-0.1,0.2l0,0.1l0.1,0.3l0.2,0.3l0.1,0.1l0,0l0-0.1l0.1-0.1l0.1-0.3l-0.1-0.2L259.5,449.1
		 M257.8,451.8l-0.3-0.1l0-0.1l0,0.1l0.1,0.1l0.1,0.1l0.1,0.2v0.1l0,0l0,0v0.1l0,0.1v0l0,0l0.2-0.1l0-0.3l-0.1-0.1L257.8,451.8
		 M161,263.4l0.2-0.2h0.1l0.1-0.1l0.1-0.1l0-0.1l-0.1-0.1v-0.1l-0.1-0.1l-0.1,0.1l-0.1,0l-0.1-0.1l-0.1,0l-0.1,0.1l0,0.1l0,0l0,0.1
		l0,0.1l0,0.1l0.1,0.2L161,263.4 M159.3,273.4L159.3,273.4l-0.1-0.1l0-0.1l-0.1-0.1l0,0v0.1l0,0.1l-0.1,0v0.1l0,0l0.1,0.1l0.1,0
		l0,0.1l0.1,0l-0.1,0.1l0,0.2l0,0.1l0.4,0.1l-0.1-0.4L159.3,273.4 M172.6,299.2l-0.1-0.1l-0.2,0l-0.2,0.1l-0.1,0l0,0.2l0.2,0.2
		l0.1,0l0-0.1l0.1,0l0.2,0l0.2-0.1l-0.1,0L172.6,299.2 M171.4,307.3l-0.1-0.1l-0.3,0.1l-0.1,0l-0.1,0l0,0l0-0.1l-0.1,0.2l-0.1-0.1
		l-0.1,0l-0.1-0.1l-0.1,0.1l-0.1,0l-0.1,0.1l0,0.2l0.2,0.1l0.2,0.2l0.1,0l0,0l0,0.2l0.6,0l0.2-0.1l0-0.1l0.1-0.2l-0.1-0.3
		L171.4,307.3 M167.9,300.4l0,0.1l0.2,0.4l1.5,0.7l0.1-0.2l0-0.3l-0.1-0.3l-1.7-0.7L167.9,300.4 M220.1,376.5L220.1,376.5l0.1,0.3
		l0.7,0.2l0.1,0l0.6,0.2l0.4-0.1l0.7,0.1l0.3,0l0.1-0.2l-0.1-0.3l-0.2-0.3l-0.6-0.4l-0.2,0l-0.1,0l-0.4-0.1l-0.5,0.1l-0.2,0.1l0,0.1
		l0,0.1l0,0.1l0.1,0.1l0.2,0.2l-0.7-0.3H220.1 M223.3,380l-0.2-0.1l-0.2,0l-0.4,0.2l-0.1,0.1l0,0.1v0.1l0,0.1l0.3,0.3h0.4l0.1-0.1
		l0.1,0l-0.1,0.1l-0.1,0.1l0.1,0l0.5-0.1l0.1-0.2l-0.1-0.1l-0.2,0l0-0.2L223.3,380 M219.9,384l-0.1,0.1l0,0.1l0.1,0.2l0.2,0.2
		l0.7,0.4l0.2,0l0.1-0.1l0-0.1l0-0.1l0-0.1l0-0.1l-0.4-0.3l-0.1-0.1l-0.1,0l-0.1,0l0-0.1l0,0l-0.1,0l-0.1,0.1l-0.1,0V384l0-0.1
		L219.9,384L219.9,384 M214.7,409.6l0.2,0.1l0.3,0l0.3-0.5l0.1-0.1l0.1,0l0.1-0.1l0.3-0.1l0-0.1l0.1-0.1l0-0.2l-0.3-0.4l-0.1-0.2
		l-0.2,0l-0.1,0.1l-0.1,0.2l0,0.1l-0.1,0.1l-0.3,0l-0.1,0.1l-0.1,0.1l-0.1,0.1l-0.1,0.1l0,0.1l0.3,0.3l0.1,0l0.2-0.1l0.1-0.2l0.1,0
		l-0.2,0.3L214.7,409.6 M255.8,440.8L255.8,440.8l0.1-0.2l-0.2-0.7l-0.1-0.1l-0.1,0l-0.1,0.1l-0.1,0l-0.1-0.1l-0.1,0.1l0,0.4l0,0.3
		l0,0.1l0.1,0l0,0.1v0.1l0,0.1l0.1,0l0-0.1l0-0.1l0.1-0.1L255.8,440.8 M255.7,442.1l0.1,0.2l0.1-0.2l0.1-0.6l0-0.4L256,441l-0.1,0
		l-0.1-0.1l-0.1,0l-0.1,0.1l-0.1,0.1l0.1,0.1v0.1l0,0.1l0,0.2v0.2l0.1,0.1L255.7,442.1 M231.6,435.6h0.2l0.1-0.1l0.1-0.1l0.1,0
		l0.1,0l0.1-0.1l0.1-0.1l0.1-0.1l0-0.1l0.1-0.2l0.3-0.3l0-0.2l-0.1-0.1l-0.1-0.1l-0.1,0l-0.1,0.1l-0.1,0l-0.1,0.1l-0.1,0.2H232
		l-0.1,0.1l-0.1,0.1l-0.1,0.1l-0.1,0.1l-0.1,0.1l0,0.1l-0.1,0.1h-0.1l0,0.1l0.1,0.2L231.6,435.6 M230.7,435.7l0.2,0l0.2-0.1l0.1-0.1
		l-0.1-0.1l-0.1,0l-0.1,0.1l-0.1,0.1l-0.3,0.1l-0.1,0.1l0.1,0l0,0L230.7,435.7 M261.5,446.2l-0.5-0.6l-0.1,0l-0.1,0l-0.1,0.1l0,0.2
		l-0.1,0h-0.1l-0.2-0.2l-0.2,0l0,0.1l0.1,0.1l0,0.1l0,0.1l0,0.1l0.1,0.1l1.2,0.8l0,0.1h0.1l0-0.1l0-0.1l-0.1-0.2l0-0.1l0.1-0.2
		l0-0.1l0-0.1l0-0.1l-0.2-0.3l0-0.1L261.5,446.2 M184.8,266.9l-0.5,0.4l-0.3,0.2l-0.3,0.2l-0.3,0.1l-0.5,0l-0.8,0.3L181,268l-1,0.3
		l-1.2-0.1L178,268l-1-0.8l-0.4-0.5l-0.2,0l0,0h0l0.1,0.6l0.1,0.3l0.1,0.1l0,0.2l-0.1,0.3l-0.3,0.6l-0.2,0.9l-0.1,0.3l0,0.2l0.1,0.7
		v0.3c-0.1,0.1-0.2,0.2-0.3,0.3l-0.8,0.7l-0.9,0.4l0,0l-0.2,0.1l-0.2,0.2c-0.1,0.1-0.2,0.1-0.3,0.2l-0.2,0.2l-0.1,0.1l0,0l0,0
		l-0.1,0.2l-0.1,0.2v0l-0.1,0.4l0.2,0.5l0,0.3l0,0l-0.1,0.2l-0.1,0.2c-0.2,0.1-0.4,0.2-0.6,0.3l-0.2,0.2l0,0l0,0.1l-0.2,0.2
		l-0.2-0.1l-0.4-0.5l-0.5-0.4l-0.3-0.1l-0.3,0.2v0l0,0l-0.1,0.3l0.2,0.3l0.3,0.2l0.2,0.1l-0.4,0.3l-0.5-0.1l-0.9-0.4l-0.4-0.1
		l-0.5,0l-0.3,0.2l-0.3,0.2l-0.2,0.1l-0.2-0.1l0.8-0.8l0.7-0.2l0.7-0.1l0.7-0.4h0l0,0l-0.6-0.2l-1.2,0l-0.6-0.1l-0.2-0.2l-0.2-0.5
		l-0.2-0.1l-0.3,0.1l-0.6,0.4l-0.3,0c0.1-0.2,0.3-0.3,0.4-0.5l0.1-0.1l0.1-0.3l0-0.2l-0.1-0.1l-0.2-0.1l-0.4,0l-0.1-0.1
		c0.1-0.1,0.2-0.2,0.3-0.3l0.4-0.1l0.4,0.1l0.7,0.4l0.4,0.1l0.8,0l0.4,0.1l0.3,0l0.8-0.4l0.4-0.1l1.6,0.5l0.5,0l0,0h0
		c0.1-0.1,0.3-0.2,0.4-0.3l0.4-0.4l0.4-0.3h0.2l0.4,0.1l0.2-0.1l0.7-0.6l0,0l0.1-0.2l0.1-0.6v-0.6l0-0.3l0.1-0.1l0.3-0.4l0.1-0.3
		l0.1-0.2l0.2-0.5l0-0.5l-0.1-0.2l-0.4-0.3l-0.1-0.2l-0.1-0.3v-0.1l0,0l0.1-0.1l0.1-0.2l0.1-0.1l0.1-0.4l0-0.1l-0.2-0.8l0-0.4
		l-0.1-0.2l-1.7-0.4l-0.4,0.2l-0.3,0.2l-0.4,0.2l-1.2-0.1l-0.2,0.1l0,0l0,0l-0.3,0.5c-0.1,0.2-0.2,0.3-0.3,0.5
		c-0.1,0.1-0.2,0.2-0.4,0.3l-0.3,0.1l-0.3-0.1l-0.2,0l-0.2,0.1l-0.6,0.3l-0.1,0l-0.2-0.4c0.1-0.1,0.2-0.3,0.3-0.4l0.7-0.5l0.1-0.1
		l0.4-0.1l0.4,0l0.4-0.1l0,0h0l0.4-0.4l0.1-0.2l0.1-0.2l0.3-0.6l0.2-0.6v0l0,0v-0.3l-0.3-0.3l-0.4-0.8l-0.3-0.3l-0.4-0.1l-0.9,0
		l-0.4-0.1l-0.7-0.4l-0.8-0.9l-0.1-0.1l0-0.2l-0.1-0.2l-0.2-0.2l-0.2-0.1l-0.2,0.1l-0.2-0.1l-0.2-0.5l-0.3-0.4l-0.5,0.3v0l0,0
		l0.4,0.3l-0.3,0.4c-0.4,0.3-0.7,0.5-1.1,0.8l0,0l0,0l0.1,0.2l0,0.2l-0.2,0.7l-0.1,0.2l0,0l0,0v0l0,0.2l0.1,0.2l-0.2,0.2l-0.2,0.1
		l-0.1,0l-0.3,0.2l-0.1,0.1l0,0l0,0l0,0.1l-0.1,0.1l-0.1,0l-0.2-0.2h-0.1l-0.2,0.3c0,0.1-0.1,0.3-0.1,0.4l-0.2,0.4l-0.4,0.2l0,0l0,0
		l-0.2,0.2l-0.3,0.3c-0.1,0.1-0.2,0.2-0.3,0.4l0,0l0,0l-0.2,0.6l0.1,0.5l0.3,0.9l0,0.5l-0.6,0l-0.3,0.1l0,0l0,0l-0.1,0.2l0,0l0,0
		l0.1,0.3l0.3,0.6l0.2,0.2l0.1,0.2l0.1,0.1l0.2,0l0.2-0.1l0.2-0.1l0.1,0.1l0,0.2c-0.1,0.1-0.2,0.3-0.3,0.4l0,0.2v0l-0.3,0.4l0,0l0,0
		l0.1,0.3l0.2,0.2l0.1,0.3l-0.1,0.3l-0.2,0l-0.2-0.1l-0.1-0.3l-0.2,0.2l-0.2,0l-0.1-0.1l-0.1-0.2l0,0.1l0,0l0.1,0.7l0.7,1.7
		c-0.1,0.2-0.1,0.4-0.2,0.6l-0.3,0l-0.6-0.5l-0.3-0.1l-0.4,0.1v0h0l0.1,0.4l-0.3,0.4l0.3,0.1l0.4,0l0.3,0.1l0.1,0.4l-0.2,0.1
		l-0.4,0.4l-0.2,0.1l0,0l0,0l1.4,0.7l0,0l-0.2,0.2l-0.7,0.3v0l0,0l-0.1,0.2l-0.1,0.1l0,0l0,0l0.1,0.3l0.3,0.1l1.3-0.1l0.2,0l0.1-0.1
		l0.1-0.2l0.2-0.2l0.2,0.1l0.1,0.4l-0.2,0.3l-0.4,0.2l-0.3,0.1l0,0l0,0l0,0.1l0,0.1c0,0,0,0,0,0l0.2,0.3l0.3,0.2l0.4,0l0,0h0
		c0.2-0.2,0.4-0.5,0.6-0.7l0,0.3l-0.2,0.5l-0.2,0.2l-0.2,0.3l0,0l0,0l0.2,0.3l1.1,0.9l0.3,0.2l0.1,0.2v0.2l0,0.1l-0.1,0.5v0.2
		l0.7,1.1l0.1,0.6l-0.4,0.5l-0.2,0.3l0-0.3v-0.3l-0.1-0.2l-0.3-0.3l-0.1-0.5l-0.2-0.3l-0.1-0.5l-0.1-0.2l-1.6-0.8l-0.1-0.2l-0.3-0.4
		l-0.2-0.1l-0.3,0.1l-0.9,0.7l-0.3,0.3l2.9,0.7l0.3,0.4l-0.1,0.2l-0.1,0.1l-0.1-0.1l-0.1-0.3l-0.1-0.2l-0.5-0.1l-0.1,0.1l-0.1,0.1
		l-0.1,0.1l0,0l0,0l-0.9,0l-0.5,0.1l0,0h0c-0.1,0.1-0.2,0.2-0.3,0.3l0,0l0,0l0.6,0.3l0.5,0.4l0.6,0.9l0.3,0.1l-0.1,0.1l-0.1,0.1
		c-0.1,0-0.1,0.1-0.2,0.1l-0.4,0.2v0l0,0l0.2,0.2l0.4,0.3l0.1,0.2l-0.3,0l0,0l-0.1,0.2l0.4,0.5l0.3,0.1l0.3-0.3l0.1-0.1l0,0l0.1,0
		l0.1,0.1l0,0.1l0,0.1l-0.1,0.2l-0.1,0.1l-0.1,0.1l-0.2,0.2l0.1,0.2l0.2,0.1l0.4,0.2l0.2,0l0.5-0.1l0.6,0.1l0.2,0l0.1-0.1l0,0l0,0
		l0.1-0.2l0.1-0.1l0.1-0.2l0.2-0.2l0.1,0.3l0.1,0.6l0.2,0.4l0.3,0.3l0.5,0.1l0.3,0l0.4-0.1l0.4-0.2l0,0l0,0l0.1-0.1l0,0l0.1,0.2
		l0.7,0.2l0.7-0.1l0.1-0.1l0-0.2l-0.1-0.2l-0.2-0.1l-1.2,0l0,0l-1.1-0.5l-0.5-0.1l-0.2-0.2l-0.1-0.4l0.3,0.3l0.2,0.1l0,0l0,0
		l0.1-0.1l0.1-0.1l0.2-0.3h0.2l0.2,0.1l0.6-0.1l1.1,0.2l1.2,0.6l0.4,0l0.6-0.4l1.2-1.2l0.4-0.3v0l0,0l0.1-0.5l0,0l0.1-0.3l0.6-1.2
		l0.1-0.4l0.2-0.9l0.1-0.5l0,0l0-0.1l0.1-0.2l0,0l0.1-0.2l0.2-0.2l0.2-0.2l0.2-0.3l0,0l0.1-0.2l0.1-0.6l0.3-0.5l0.4-0.5l0.8-0.8
		l0.4-0.4l0.3-0.4l0.3-0.5l0.1-0.1l0.2-0.5l0.3-0.5l0.3-0.4l0.1-0.2l0.2-0.2l0.9-0.7l1.7-1.1l0.9-0.7c0.2-0.3,0.5-0.5,0.7-0.8
		l0.7-0.9l0.6-1c0.2-0.4,0.4-0.7,0.5-1.1l0.1-0.1l0.1-0.2l0,0l0-0.2l0-0.2l0.1,0l0.1-0.1v0l0,0L184.8,266.9L184.8,266.9L184.8,266.9
		"/>
	<g>
		<path class="st2" d="M258.7,200.8h6.2c3,0,4.5,1.3,4.5,4c0,0.9-0.2,1.6-0.5,2.1c-0.3,0.5-0.9,0.9-1.5,1.1c0.8,0.2,1.4,0.6,1.8,1.2
			c0.5,0.6,0.7,1.4,0.7,2.5c0,1.5-0.4,2.5-1.2,3.2c-0.8,0.6-2,1-3.5,1h-6.5V200.8z M264.9,206.7c0.3,0,0.5-0.1,0.6-0.3
			c0.1-0.2,0.2-0.5,0.2-0.9c0-0.4-0.1-0.7-0.3-0.9s-0.4-0.3-0.6-0.3h-2.3v2.4H264.9z M265.1,212.3c0.4,0,0.6-0.1,0.8-0.4
			c0.2-0.2,0.3-0.6,0.3-1c0-0.4-0.1-0.7-0.3-1c-0.2-0.2-0.5-0.4-0.8-0.4h-2.5v2.6H265.1z"/>
		<path class="st2" d="M271.5,205h3.1l0.9,1.5c0.4-0.5,0.8-0.9,1.2-1.2s0.9-0.5,1.5-0.5c0.3,0,0.6,0,0.8,0.1v4
			c-0.6-0.1-1.1-0.1-1.3-0.1c-1,0-1.7,0.3-2.1,0.8v6.2h-3.9V205z"/>
		<path class="st2" d="M280.3,203.5c-0.1-0.1-0.1-0.2-0.1-0.3v-2.2c0-0.2,0-0.3,0.1-0.4c0.1-0.1,0.2-0.1,0.4-0.1h3.1
			c0.1,0,0.3,0,0.3,0.1c0.1,0.1,0.1,0.2,0.1,0.4v2.2c0,0.3-0.1,0.5-0.4,0.5h-3.1C280.5,203.6,280.4,203.5,280.3,203.5z M280.2,205
			h3.9v10.9h-3.9V205z"/>
		<path class="st2" d="M288.1,215.5c-0.5-0.3-0.9-0.7-1.2-1.3c-0.2-0.6-0.3-1.4-0.3-2.4l0.1-3.7h-1.7v-2.5l1.8-0.6l0.5-3.1h3.1v3.1
			h2.2v3.1h-2.2v3.7c0,0.4,0.1,0.6,0.2,0.8c0.1,0.2,0.3,0.3,0.6,0.3l1.4,0.1v2.9h-2.3C289.4,215.8,288.7,215.7,288.1,215.5z"/>
		<path class="st2" d="M294.1,203.5c-0.1-0.1-0.1-0.2-0.1-0.3v-2.2c0-0.2,0-0.3,0.1-0.4c0.1-0.1,0.2-0.1,0.4-0.1h3.1
			c0.1,0,0.3,0,0.3,0.1c0.1,0.1,0.1,0.2,0.1,0.4v2.2c0,0.3-0.1,0.5-0.4,0.5h-3.1C294.3,203.6,294.2,203.5,294.1,203.5z M294,205h3.9
			v10.9H294V205z"/>
		<path class="st2" d="M301.5,215.8c-0.7-0.1-1.4-0.3-1.8-0.5v-2.3h5.1c0.2,0,0.4,0,0.5-0.1s0.1-0.2,0.1-0.3v-0.3
			c0-0.1,0-0.3-0.2-0.3c-0.1-0.1-0.3-0.1-0.6-0.1h-1.8c-1,0-1.8-0.2-2.4-0.7c-0.6-0.5-0.9-1.3-0.9-2.4v-0.7c0-0.7,0.1-1.4,0.4-1.8
			c0.3-0.5,0.8-0.8,1.5-1.1c0.7-0.3,1.6-0.4,2.9-0.4c0.7,0,1.4,0.1,2.2,0.2s1.4,0.3,1.7,0.4v2.3h-4.8c-0.2,0-0.4,0-0.4,0.1
			c-0.1,0.1-0.1,0.2-0.1,0.3v0.3c0,0.2,0.1,0.3,0.2,0.3c0.1,0.1,0.3,0.1,0.6,0.1h1.9c1.1,0,2,0.3,2.5,0.8s0.8,1.3,0.8,2.2v1.1
			c0,1.1-0.4,1.8-1.2,2.3c-0.8,0.5-2,0.7-3.6,0.7C303,216,302.2,215.9,301.5,215.8z"/>
		<path class="st2" d="M310,200.5h3.9v5.6c0.3-0.3,0.8-0.6,1.4-0.9c0.6-0.2,1.2-0.4,1.7-0.4c1.2,0,2.1,0.3,2.6,1
			c0.5,0.7,0.8,1.7,0.8,3v7.1h-3.9v-6.5c0-0.7-0.4-1-1.1-1c-0.3,0-0.5,0.1-0.8,0.2c-0.3,0.1-0.5,0.3-0.7,0.4v6.9H310V200.5z"/>
		<path class="st2" d="M260.8,239.6c-0.8-0.4-1.4-1.2-1.8-2.3s-0.6-2.7-0.6-4.8c0-2,0.2-3.6,0.7-4.7s1.1-1.9,1.9-2.3
			c0.8-0.4,1.8-0.6,3-0.6c1.1,0,2.1,0.1,2.9,0.2c0.8,0.2,1.5,0.4,2,0.6v3.1c-0.4-0.1-1-0.2-1.7-0.2c-0.7-0.1-1.5-0.1-2.3-0.1
			c-0.7,0-1.2,0.1-1.5,0.3c-0.3,0.2-0.6,0.6-0.7,1.2s-0.2,1.5-0.2,2.7c0,1.1,0.1,2,0.2,2.6c0.1,0.6,0.4,1,0.7,1.2
			c0.4,0.2,0.9,0.4,1.6,0.4c1.8,0,3.1-0.1,4-0.2v3.1c-1.1,0.4-2.7,0.6-4.9,0.6C262.6,240.2,261.6,240,260.8,239.6z"/>
		<path class="st2" d="M272,239.6c-0.7-0.4-1.3-1-1.6-1.8c-0.3-0.8-0.5-1.9-0.5-3.3c0-1.5,0.2-2.6,0.5-3.4s0.9-1.4,1.6-1.7
			c0.7-0.3,1.8-0.5,3.1-0.5s2.4,0.2,3.1,0.5c0.7,0.3,1.3,0.9,1.6,1.7c0.3,0.8,0.5,1.9,0.5,3.4c0,1.4-0.2,2.5-0.5,3.3
			c-0.3,0.8-0.8,1.4-1.6,1.7c-0.7,0.4-1.8,0.5-3.1,0.5C273.8,240.2,272.8,240,272,239.6z M275.9,236.9c0.2-0.1,0.3-0.3,0.4-0.7
			c0.1-0.3,0.1-0.9,0.1-1.7c0-0.8,0-1.3-0.1-1.6c-0.1-0.3-0.2-0.6-0.4-0.7c-0.2-0.1-0.4-0.2-0.8-0.2s-0.6,0.1-0.8,0.2
			c-0.2,0.1-0.3,0.3-0.4,0.7c-0.1,0.3-0.1,0.9-0.1,1.6c0,0.8,0,1.3,0.1,1.7c0.1,0.3,0.2,0.6,0.4,0.7c0.2,0.1,0.4,0.2,0.8,0.2
			S275.7,237,275.9,236.9z"/>
		<path class="st2" d="M282.7,239.3c-0.6-0.6-0.9-1.5-0.9-2.7v-11.9h3.9V236c0,0.4,0.1,0.7,0.2,0.9s0.4,0.3,0.7,0.4l0.7,0.1v2.8
			h-1.7C284.3,240.2,283.3,239.9,282.7,239.3z"/>
		<path class="st2" d="M289.2,239.3c-0.5-0.6-0.8-1.4-0.8-2.4v-7.7h3.9v6.5c0,0.4,0.1,0.7,0.3,0.8c0.2,0.2,0.4,0.2,0.8,0.2
			c0.2,0,0.5-0.1,0.8-0.2c0.3-0.1,0.5-0.3,0.7-0.4v-6.9h3.9v10.9h-3.3l-0.6-1.1c-1.2,0.8-2.4,1.2-3.4,1.2
			C290.4,240.2,289.7,239.9,289.2,239.3z"/>
		<path class="st2" d="M300.5,229.2h3.3l0.6,1.1c0.5-0.4,1-0.7,1.5-0.9c0.5-0.2,1.1-0.3,1.8-0.3c0.6,0,1.2,0.1,1.6,0.4
			s0.8,0.6,1,1.1c1.3-1,2.4-1.5,3.4-1.5c1.3,0,2.2,0.3,2.7,1c0.5,0.7,0.7,1.7,0.7,3.2v6.9h-3.9v-6.5c0-0.4-0.1-0.7-0.3-0.8
			c-0.2-0.2-0.5-0.2-0.8-0.2c-0.3,0-0.5,0.1-0.8,0.2c-0.3,0.1-0.5,0.3-0.7,0.4v0.5v6.4H307v-6.5c0-0.4-0.1-0.7-0.3-0.8
			c-0.2-0.2-0.5-0.2-0.8-0.2c-0.3,0-0.5,0.1-0.8,0.2c-0.3,0.1-0.5,0.3-0.7,0.4v6.9h-3.9V229.2z"/>
		<path class="st2" d="M324.3,239.9c-0.4-0.2-0.8-0.5-1.3-0.8l-0.6,1h-3.3v-15.4h3.9v5.1c1-0.5,1.9-0.8,2.7-0.8c1,0,1.7,0.2,2.3,0.6
			s1,1,1.2,1.8c0.2,0.8,0.4,1.9,0.4,3.3c0,1.9-0.3,3.3-0.9,4.1c-0.6,0.9-1.5,1.3-2.7,1.3C325.2,240.2,324.7,240.1,324.3,239.9z
			 M325.3,236.6c0.2-0.3,0.3-1,0.3-2c0-0.7-0.1-1.2-0.2-1.6c-0.1-0.4-0.3-0.6-0.4-0.7c-0.2-0.1-0.4-0.2-0.6-0.2
			c-0.2,0-0.5,0-0.8,0.1c-0.3,0.1-0.5,0.2-0.6,0.3v4.2c0.4,0.2,0.8,0.3,1.3,0.3C324.7,237,325,236.9,325.3,236.6z"/>
		<path class="st2" d="M331.1,227.7c-0.1-0.1-0.1-0.2-0.1-0.3v-2.2c0-0.2,0-0.3,0.1-0.4c0.1-0.1,0.2-0.1,0.4-0.1h3.1
			c0.1,0,0.3,0,0.3,0.1c0.1,0.1,0.1,0.2,0.1,0.4v2.2c0,0.3-0.1,0.5-0.4,0.5h-3.1C331.3,227.8,331.2,227.8,331.1,227.7z M331,229.2
			h3.9v10.9H331V229.2z"/>
		<path class="st2" d="M337.1,239.5c-0.5-0.5-0.8-1.2-0.8-2v-1.1c0-0.8,0.3-1.5,0.9-2.1c0.6-0.5,1.5-0.8,2.8-0.8h2.2v-0.3
			c0-0.3,0-0.5-0.1-0.7c-0.1-0.1-0.3-0.2-0.6-0.3c-0.3-0.1-0.7-0.1-1.4-0.1H337v-2.2c0.6-0.2,1.3-0.4,2.1-0.6
			c0.7-0.1,1.6-0.2,2.6-0.2c1.5,0,2.6,0.3,3.4,0.8c0.8,0.5,1.1,1.5,1.1,3v7.2h-3.1l-0.6-1.1c-0.3,0.3-0.8,0.6-1.3,0.8
			c-0.6,0.2-1.2,0.4-2,0.4C338.3,240.2,337.6,240,337.1,239.5z M341.8,237.5c0.2-0.1,0.4-0.1,0.5-0.2v-2l-0.8,0.1
			c-0.4,0.1-0.7,0.2-0.9,0.3c-0.2,0.1-0.3,0.4-0.3,0.6v0.4c0,0.3,0.1,0.5,0.2,0.6c0.2,0.1,0.4,0.2,0.7,0.2
			C341.4,237.6,341.6,237.5,341.8,237.5z"/>
	</g>
	<g>
		<g>
			<path class="st3" d="M236.7,320.4h3.7c1.8,0,2.7,0.8,2.7,2.5c0,0.6-0.1,1-0.3,1.4c-0.2,0.4-0.5,0.6-1,0.7
				c0.5,0.1,0.8,0.4,1.1,0.7c0.3,0.4,0.5,0.9,0.5,1.5c0,0.9-0.2,1.6-0.7,2c-0.5,0.4-1.2,0.6-2.1,0.6h-3.9V320.4z M240.4,324.2
				c0.3,0,0.5-0.1,0.6-0.3s0.2-0.5,0.2-0.8c0-0.4-0.1-0.6-0.2-0.8c-0.2-0.2-0.4-0.3-0.7-0.3h-1.8v2.2H240.4z M240.5,328
				c0.7,0,1.1-0.4,1.1-1.2c0-0.4-0.1-0.6-0.3-0.8c-0.2-0.2-0.5-0.3-0.8-0.3h-1.9v2.4H240.5z"/>
			<path class="st3" d="M245.6,329.5c-0.4-0.2-0.8-0.6-1-1.1c-0.2-0.5-0.3-1.2-0.3-2.1c0-0.9,0.1-1.6,0.3-2.1
				c0.2-0.5,0.5-0.9,0.9-1.1c0.4-0.2,1-0.3,1.8-0.3c0.7,0,1.2,0.1,1.6,0.2s0.7,0.4,0.9,0.7c0.2,0.3,0.3,0.8,0.3,1.4
				c0,0.7-0.2,1.1-0.6,1.4c-0.4,0.3-0.9,0.4-1.6,0.4h-1.7c0,0.4,0.1,0.6,0.2,0.8c0.1,0.2,0.3,0.3,0.5,0.4c0.2,0.1,0.6,0.1,1,0.1h2
				v1.1c-0.4,0.1-0.9,0.2-1.2,0.2c-0.4,0.1-0.8,0.1-1.3,0.1C246.7,329.8,246.1,329.7,245.6,329.5z M247.8,325.9
				c0.3,0,0.4-0.1,0.6-0.2c0.1-0.1,0.2-0.3,0.2-0.5c0-0.4-0.1-0.6-0.3-0.8c-0.2-0.1-0.5-0.2-0.9-0.2c-0.3,0-0.5,0-0.7,0.1
				c-0.2,0.1-0.3,0.3-0.4,0.5c-0.1,0.2-0.1,0.6-0.1,1H247.8z"/>
			<path class="st3" d="M251.9,329.2c-0.4-0.4-0.5-0.9-0.5-1.7v-7.5h1.9v7.2c0,0.4,0.1,0.6,0.2,0.8c0.1,0.2,0.3,0.3,0.5,0.3l0.5,0.1
				v1.4h-1C252.8,329.8,252.3,329.6,251.9,329.2z"/>
			<path class="st3" d="M255.9,329.2c-0.4-0.4-0.5-0.9-0.5-1.7v-7.5h1.9v7.2c0,0.4,0.1,0.6,0.2,0.8c0.1,0.2,0.3,0.3,0.5,0.3l0.5,0.1
				v1.4h-1C256.8,329.8,256.2,329.6,255.9,329.2z"/>
			<path class="st3" d="M259.5,329.3c-0.3-0.3-0.5-0.7-0.5-1.3v-0.6c0-0.5,0.2-1,0.6-1.3c0.4-0.3,0.9-0.5,1.7-0.5h1.7v-0.5
				c0-0.2,0-0.4-0.1-0.5s-0.2-0.2-0.4-0.3c-0.2-0.1-0.5-0.1-0.9-0.1h-2v-1.1c0.8-0.3,1.7-0.4,2.7-0.4c0.9,0,1.6,0.2,2,0.5
				s0.7,0.9,0.7,1.8v4.6h-1.5l-0.3-0.7c-0.1,0.1-0.3,0.2-0.5,0.3s-0.5,0.2-0.8,0.3c-0.3,0.1-0.7,0.1-1,0.1
				C260.2,329.8,259.8,329.6,259.5,329.3z M262.5,328.4c0.3-0.1,0.5-0.2,0.5-0.2v-1.6l-1.1,0.1c-0.6,0.1-1,0.3-1,0.8v0.3
				c0,0.5,0.3,0.7,0.8,0.7C261.9,328.5,262.2,328.5,262.5,328.4z"/>
			<path class="st3" d="M238,343.6c-0.5-0.2-0.9-0.7-1.1-1.4c-0.3-0.7-0.4-1.7-0.4-3c0-1.2,0.1-2.2,0.4-2.9c0.3-0.7,0.6-1.2,1.1-1.4
				c0.5-0.3,1.1-0.4,1.9-0.4c0.6,0,1.1,0,1.6,0.1c0.5,0.1,0.9,0.2,1.3,0.3v1.5c-0.3-0.1-0.6-0.1-1.1-0.2c-0.5,0-1-0.1-1.5-0.1
				c-0.5,0-0.9,0.1-1.2,0.2c-0.3,0.2-0.5,0.5-0.6,0.9s-0.2,1.1-0.2,2c0,0.9,0.1,1.5,0.2,1.9c0.1,0.4,0.3,0.7,0.6,0.9
				c0.3,0.2,0.7,0.3,1.2,0.3c1,0,1.9,0,2.5-0.1v1.4c-0.8,0.2-1.7,0.4-3,0.4C239.1,344,238.5,343.8,238,343.6z"/>
			<path class="st3" d="M245,343.6c-0.4-0.2-0.8-0.6-1-1.1s-0.3-1.2-0.3-2.1c0-0.9,0.1-1.6,0.3-2.1s0.5-0.9,1-1.1
				c0.4-0.2,1.1-0.3,1.8-0.3c0.8,0,1.4,0.1,1.8,0.3c0.4,0.2,0.8,0.6,1,1.1s0.3,1.2,0.3,2.1s-0.1,1.6-0.3,2.1s-0.5,0.9-1,1.1
				c-0.4,0.2-1.1,0.3-1.8,0.3C246.1,343.9,245.5,343.8,245,343.6z M247.6,342.3c0.2-0.1,0.3-0.3,0.4-0.6s0.1-0.7,0.1-1.3
				s0-1-0.1-1.3s-0.2-0.5-0.4-0.6c-0.2-0.1-0.4-0.1-0.7-0.1c-0.3,0-0.6,0-0.7,0.1c-0.2,0.1-0.3,0.3-0.4,0.6
				c-0.1,0.3-0.1,0.7-0.1,1.3s0,1,0.1,1.3c0.1,0.3,0.2,0.5,0.4,0.6c0.2,0.1,0.4,0.1,0.7,0.1C247.2,342.5,247.4,342.4,247.6,342.3z"
				/>
			<path class="st3" d="M252.3,343.6c-0.4-0.2-0.8-0.6-1-1.1s-0.3-1.2-0.3-2.1c0-0.9,0.1-1.6,0.3-2.1s0.5-0.9,1-1.1
				c0.4-0.2,1.1-0.3,1.8-0.3c0.8,0,1.4,0.1,1.8,0.3c0.4,0.2,0.8,0.6,1,1.1s0.3,1.2,0.3,2.1s-0.1,1.6-0.3,2.1s-0.5,0.9-1,1.1
				c-0.4,0.2-1.1,0.3-1.8,0.3C253.4,343.9,252.8,343.8,252.3,343.6z M254.9,342.3c0.2-0.1,0.3-0.3,0.4-0.6s0.1-0.7,0.1-1.3
				s0-1-0.1-1.3s-0.2-0.5-0.4-0.6c-0.2-0.1-0.4-0.1-0.7-0.1c-0.3,0-0.6,0-0.7,0.1c-0.2,0.1-0.3,0.3-0.4,0.6
				c-0.1,0.3-0.1,0.7-0.1,1.3s0,1,0.1,1.3c0.1,0.3,0.2,0.5,0.4,0.6c0.2,0.1,0.4,0.1,0.7,0.1C254.5,342.5,254.7,342.4,254.9,342.3z"
				/>
			<path class="st3" d="M259,343.4c-0.4-0.4-0.5-0.9-0.5-1.7v-7.5h1.9v7.2c0,0.4,0.1,0.6,0.2,0.8c0.1,0.2,0.3,0.3,0.5,0.3l0.5,0.1
				v1.4h-1C259.9,343.9,259.4,343.7,259,343.4z"/>
			<path class="st3" d="M262.6,343.5c-0.3-0.3-0.5-0.7-0.5-1.3v-0.6c0-0.5,0.2-1,0.6-1.3c0.4-0.3,0.9-0.5,1.7-0.5h1.7v-0.5
				c0-0.2,0-0.4-0.1-0.5s-0.2-0.2-0.4-0.3c-0.2-0.1-0.5-0.1-0.9-0.1h-2v-1.1c0.8-0.3,1.7-0.4,2.7-0.4c0.9,0,1.6,0.2,2,0.5
				s0.7,0.9,0.7,1.8v4.6h-1.5l-0.3-0.7c-0.1,0.1-0.3,0.2-0.5,0.3s-0.5,0.2-0.8,0.3c-0.3,0.1-0.7,0.1-1,0.1
				C263.4,344,263,343.8,262.6,343.5z M265.6,342.5c0.3-0.1,0.5-0.2,0.5-0.2v-1.6l-1.1,0.1c-0.6,0.1-1,0.3-1,0.8v0.3
				c0,0.5,0.3,0.7,0.8,0.7C265.1,342.7,265.3,342.6,265.6,342.5z"/>
		</g>
	</g>
	<circle class="st4" cx="227.6" cy="325.6" r="3"/>
	<g>
		<g>
			<path class="st3" d="M288,434.4h1.9l2.2,7.3l2.2-7.3h1.9l-2.9,9.4H291L288,434.4z"/>
			<path class="st3" d="M297,443.3c-0.3-0.3-0.5-0.7-0.5-1.3v-0.6c0-0.5,0.2-1,0.6-1.3c0.4-0.3,0.9-0.5,1.7-0.5h1.7v-0.5
				c0-0.2,0-0.4-0.1-0.5s-0.2-0.2-0.4-0.3c-0.2-0.1-0.5-0.1-0.9-0.1h-2v-1.1c0.8-0.3,1.7-0.4,2.7-0.4c0.9,0,1.6,0.2,2,0.5
				s0.7,0.9,0.7,1.8v4.6h-1.5l-0.3-0.7c-0.1,0.1-0.3,0.2-0.5,0.3s-0.5,0.2-0.8,0.3c-0.3,0.1-0.7,0.1-1,0.1
				C297.8,443.8,297.4,443.7,297,443.3z M300,442.4c0.3-0.1,0.5-0.2,0.5-0.2v-1.6l-1.1,0.1c-0.6,0.1-1,0.3-1,0.8v0.3
				c0,0.5,0.3,0.7,0.8,0.7C299.5,442.5,299.7,442.5,300,442.4z"/>
			<path class="st3" d="M303.8,436.9h1.5l0.3,0.7c0.3-0.2,0.6-0.4,1-0.6c0.4-0.2,0.8-0.2,1.1-0.2c0.8,0,1.3,0.2,1.6,0.7
				c0.3,0.4,0.5,1,0.5,1.8v4.5h-1.9v-4.2c0-0.3-0.1-0.6-0.3-0.7c-0.2-0.2-0.4-0.3-0.7-0.3c-0.5,0-0.9,0.2-1.4,0.5v4.7h-1.9V436.9z"
				/>
			<path class="st3" d="M311.9,443c-0.5-0.5-0.7-1.4-0.7-2.7c0-0.9,0.1-1.6,0.3-2.1s0.5-0.9,1-1.1c0.4-0.2,1-0.3,1.6-0.3
				c0.8,0,1.6,0.1,2.4,0.3v1.1h-1.8c-0.4,0-0.7,0.1-1,0.2c-0.2,0.1-0.4,0.3-0.5,0.6c-0.1,0.3-0.2,0.7-0.2,1.3c0,0.6,0.1,1,0.2,1.3
				c0.1,0.3,0.3,0.5,0.5,0.6c0.2,0.1,0.6,0.2,1,0.2h1.9v1.1c-0.3,0.1-0.7,0.2-1.2,0.3c-0.5,0.1-0.9,0.1-1.3,0.1
				C313.1,443.8,312.4,443.6,311.9,443z"/>
			<path class="st3" d="M318.7,443.5c-0.4-0.2-0.8-0.6-1-1.1c-0.2-0.5-0.3-1.2-0.3-2.1c0-0.9,0.1-1.6,0.3-2.1c0.2-0.5,0.5-0.9,1-1.1
				c0.4-0.2,1.1-0.3,1.8-0.3c0.8,0,1.4,0.1,1.8,0.3c0.4,0.2,0.8,0.6,1,1.1c0.2,0.5,0.3,1.2,0.3,2.1c0,0.9-0.1,1.6-0.3,2.1
				c-0.2,0.5-0.5,0.9-1,1.1c-0.4,0.2-1.1,0.3-1.8,0.3C319.7,443.8,319.1,443.7,318.7,443.5z M321.2,442.2c0.2-0.1,0.3-0.3,0.4-0.6
				c0.1-0.3,0.1-0.7,0.1-1.3c0-0.6,0-1-0.1-1.3c-0.1-0.3-0.2-0.5-0.4-0.6c-0.2-0.1-0.4-0.1-0.7-0.1c-0.3,0-0.6,0-0.7,0.1
				c-0.2,0.1-0.3,0.3-0.4,0.6s-0.1,0.7-0.1,1.3c0,0.6,0,1,0.1,1.3c0.1,0.3,0.2,0.5,0.4,0.6c0.2,0.1,0.4,0.1,0.7,0.1
				C320.8,442.3,321.1,442.3,321.2,442.2z"/>
			<path class="st3" d="M325.3,443.3c-0.3-0.4-0.5-0.9-0.5-1.5v-4.8h1.9v4.3c0,0.4,0.1,0.6,0.2,0.8s0.4,0.2,0.7,0.2
				c0.2,0,0.5,0,0.7-0.1s0.5-0.2,0.7-0.4v-4.7h1.9v6.8h-1.6l-0.3-0.7c-0.8,0.5-1.6,0.8-2.3,0.8C326.2,443.8,325.7,443.6,325.3,443.3
				z"/>
			<path class="st3" d="M331.8,436.9h1.9l1.5,5.1l1.5-5.1h1.9l-2.4,6.8h-2.2L331.8,436.9z"/>
			<path class="st3" d="M340.3,443.5c-0.4-0.2-0.8-0.6-1-1.1s-0.3-1.2-0.3-2.1c0-0.9,0.1-1.6,0.3-2.1c0.2-0.5,0.5-0.9,0.9-1.1
				c0.4-0.2,1-0.3,1.8-0.3c0.7,0,1.2,0.1,1.6,0.2c0.4,0.1,0.7,0.4,0.9,0.7s0.3,0.8,0.3,1.4c0,0.7-0.2,1.1-0.6,1.4
				c-0.4,0.3-0.9,0.4-1.6,0.4h-1.7c0,0.4,0.1,0.6,0.2,0.8c0.1,0.2,0.3,0.3,0.5,0.4c0.2,0.1,0.6,0.1,1,0.1h2v1.1
				c-0.4,0.1-0.9,0.2-1.2,0.2c-0.4,0.1-0.8,0.1-1.3,0.1C341.4,443.8,340.8,443.7,340.3,443.5z M342.5,439.9c0.3,0,0.4-0.1,0.6-0.2
				s0.2-0.3,0.2-0.5c0-0.4-0.1-0.6-0.3-0.8c-0.2-0.1-0.5-0.2-0.9-0.2c-0.3,0-0.5,0-0.7,0.1c-0.2,0.1-0.3,0.3-0.4,0.5
				c-0.1,0.2-0.1,0.6-0.1,1H342.5z"/>
			<path class="st3" d="M346.1,436.9h1.4l0.4,1c0.3-0.4,0.6-0.6,0.9-0.8c0.3-0.2,0.7-0.3,1.1-0.3c0.2,0,0.4,0,0.6,0.1v1.9
				c-0.4,0-0.7-0.1-0.8-0.1c-0.4,0-0.7,0.1-0.9,0.2c-0.3,0.1-0.5,0.3-0.7,0.6v4.2h-1.9V436.9z"/>
		</g>
	</g>
	<circle class="st4" cx="279.5" cy="439.6" r="3"/>
	<g>
		<g>
			<path class="st5" d="M315.7,384.4h1.9l1.5,6.6l1.8-6.6h1.7l1.7,6.6l1.5-6.6h1.9l-2.2,9.4h-1.9l-1.9-6.6l-1.9,6.6H318L315.7,384.4
				z"/>
			<path class="st5" d="M328.8,384.1h1.9v3.5c0.3-0.2,0.6-0.4,1-0.6s0.8-0.2,1.2-0.2c1.4,0,2.1,0.8,2.1,2.4v4.5H333v-4.3
				c0-0.3-0.1-0.6-0.3-0.7c-0.2-0.2-0.4-0.3-0.7-0.3c-0.5,0-0.9,0.2-1.4,0.5v4.7h-1.9V384.1z"/>
			<path class="st5" d="M336.4,385.9c0,0-0.1-0.1-0.1-0.2v-1.2c0-0.2,0.1-0.3,0.3-0.3h1.4c0.1,0,0.1,0,0.2,0.1s0.1,0.1,0.1,0.2v1.2
				c0,0.2-0.1,0.3-0.2,0.3h-1.4C336.5,386,336.4,386,336.4,385.9z M336.3,387h1.9v6.8h-1.9V387z"/>
			<path class="st5" d="M340.9,393.6c-0.3-0.2-0.6-0.4-0.7-0.8c-0.1-0.4-0.2-0.8-0.2-1.4l0.1-2.9h-1.1v-1.2l1.1-0.3l0.3-1.9h1.5v1.9
				h1.6v1.5h-1.6v2.9c0,0.3,0.1,0.6,0.2,0.7s0.3,0.2,0.5,0.3l0.9,0.1v1.4h-1.2C341.7,393.8,341.3,393.7,340.9,393.6z"/>
			<path class="st5" d="M345.6,393.5c-0.4-0.2-0.8-0.6-1-1.1s-0.3-1.2-0.3-2.1c0-0.9,0.1-1.6,0.3-2.1c0.2-0.5,0.5-0.9,0.9-1.1
				s1-0.3,1.8-0.3c0.7,0,1.2,0.1,1.6,0.2c0.4,0.1,0.7,0.4,0.9,0.7c0.2,0.3,0.3,0.8,0.3,1.4c0,0.7-0.2,1.1-0.6,1.4
				c-0.4,0.3-0.9,0.4-1.6,0.4h-1.7c0,0.4,0.1,0.6,0.2,0.8c0.1,0.2,0.3,0.3,0.5,0.4c0.2,0.1,0.6,0.1,1,0.1h2v1.1
				c-0.4,0.1-0.9,0.2-1.2,0.2c-0.4,0.1-0.8,0.1-1.3,0.1C346.7,393.8,346.1,393.7,345.6,393.5z M347.8,389.9c0.3,0,0.4-0.1,0.6-0.2
				c0.1-0.1,0.2-0.3,0.2-0.5c0-0.4-0.1-0.6-0.3-0.8c-0.2-0.1-0.5-0.2-0.9-0.2c-0.3,0-0.5,0-0.7,0.1c-0.2,0.1-0.3,0.3-0.4,0.5
				c-0.1,0.2-0.1,0.6-0.1,1H347.8z"/>
			<path class="st5" d="M317.6,407.9c-0.5-0.1-1-0.1-1.4-0.2v-1.5c0.8,0.1,1.7,0.1,2.9,0.1c0.5,0,0.9-0.1,1.2-0.2
				c0.3-0.1,0.4-0.4,0.4-0.7V405c0-0.3-0.1-0.5-0.2-0.6c-0.2-0.1-0.4-0.2-0.7-0.2h-0.8c-0.9,0-1.6-0.2-2.1-0.6
				c-0.5-0.4-0.7-1.1-0.7-2v-0.5c0-1.8,1-2.6,3-2.6c0.5,0,1,0,1.5,0.1c0.5,0.1,1,0.1,1.4,0.2v1.5c-1.2-0.1-2-0.1-2.6-0.1
				c-0.5,0-0.8,0.1-1.1,0.2c-0.2,0.1-0.4,0.4-0.4,0.8v0.3c0,0.3,0.1,0.6,0.3,0.7s0.5,0.2,0.8,0.2h0.9c0.8,0,1.4,0.2,1.9,0.7
				c0.4,0.4,0.6,1,0.6,1.7v0.5c0,0.7-0.1,1.3-0.4,1.7c-0.3,0.4-0.6,0.7-1.1,0.8c-0.5,0.1-1.1,0.2-1.8,0.2
				C318.7,408,318.2,408,317.6,407.9z"/>
			<path class="st5" d="M323.9,407.5c-0.3-0.3-0.5-0.7-0.5-1.3v-0.6c0-0.5,0.2-1,0.6-1.3c0.4-0.3,0.9-0.5,1.7-0.5h1.7v-0.5
				c0-0.2,0-0.4-0.1-0.5s-0.2-0.2-0.4-0.3c-0.2-0.1-0.5-0.1-0.9-0.1h-2v-1.1c0.8-0.3,1.7-0.4,2.7-0.4c0.9,0,1.6,0.2,2,0.5
				s0.7,0.9,0.7,1.8v4.6h-1.5l-0.3-0.7c-0.1,0.1-0.3,0.2-0.5,0.3s-0.5,0.2-0.8,0.3c-0.3,0.1-0.7,0.1-1,0.1
				C324.6,408,324.2,407.9,323.9,407.5z M326.8,406.6c0.3-0.1,0.5-0.2,0.5-0.2v-1.6l-1.1,0.1c-0.6,0.1-1,0.3-1,0.8v0.3
				c0,0.5,0.3,0.7,0.8,0.7C326.3,406.7,326.6,406.7,326.8,406.6z"/>
			<path class="st5" d="M331.1,407.2c-0.4-0.5-0.6-1.4-0.6-2.6c0-0.9,0.1-1.5,0.2-2.1c0.2-0.5,0.4-0.9,0.8-1.1
				c0.4-0.2,0.9-0.4,1.5-0.4c0.6,0,1.1,0.1,1.7,0.3v-3.1h1.9v9.7h-1.6l-0.3-0.6c-0.2,0.2-0.5,0.4-0.9,0.5s-0.7,0.2-1,0.2
				C332.1,408,331.5,407.7,331.1,407.2z M334.8,406.1v-3.4c-0.2-0.1-0.4-0.2-0.6-0.2c-0.2,0-0.4-0.1-0.5-0.1c-0.3,0-0.6,0.1-0.8,0.2
				s-0.3,0.3-0.4,0.6c-0.1,0.3-0.1,0.7-0.1,1.3c0,0.5,0,0.9,0.1,1.2s0.2,0.5,0.4,0.6c0.2,0.1,0.4,0.2,0.7,0.2
				C334,406.5,334.4,406.4,334.8,406.1z"/>
			<path class="st5" d="M338.4,407.2c-0.4-0.5-0.6-1.4-0.6-2.6c0-0.9,0.1-1.5,0.2-2.1c0.2-0.5,0.4-0.9,0.8-1.1
				c0.4-0.2,0.9-0.4,1.5-0.4c0.6,0,1.1,0.1,1.7,0.3v-3.1h1.9v9.7h-1.6l-0.3-0.6c-0.2,0.2-0.5,0.4-0.9,0.5s-0.7,0.2-1,0.2
				C339.5,408,338.8,407.7,338.4,407.2z M342.1,406.1v-3.4c-0.2-0.1-0.4-0.2-0.6-0.2s-0.4-0.1-0.5-0.1c-0.3,0-0.6,0.1-0.8,0.2
				s-0.3,0.3-0.4,0.6c-0.1,0.3-0.1,0.7-0.1,1.3c0,0.5,0,0.9,0.1,1.2c0.1,0.3,0.2,0.5,0.4,0.6c0.2,0.1,0.4,0.2,0.7,0.2
				C341.3,406.5,341.7,406.4,342.1,406.1z"/>
			<path class="st5" d="M346,407.4c-0.4-0.4-0.5-0.9-0.5-1.7v-7.5h1.9v7.2c0,0.4,0.1,0.6,0.2,0.8s0.3,0.3,0.5,0.3l0.5,0.1v1.4h-1
				C346.8,408,346.3,407.8,346,407.4z"/>
			<path class="st5" d="M350.4,407.7c-0.4-0.2-0.8-0.6-1-1.1s-0.3-1.2-0.3-2.1c0-0.9,0.1-1.6,0.3-2.1c0.2-0.5,0.5-0.9,0.9-1.1
				s1-0.3,1.8-0.3c0.7,0,1.2,0.1,1.6,0.2c0.4,0.1,0.7,0.4,0.9,0.7c0.2,0.3,0.3,0.8,0.3,1.4c0,0.7-0.2,1.1-0.6,1.4
				c-0.4,0.3-0.9,0.4-1.6,0.4h-1.7c0,0.4,0.1,0.6,0.2,0.8c0.1,0.2,0.3,0.3,0.5,0.4c0.2,0.1,0.6,0.1,1,0.1h2v1.1
				c-0.4,0.1-0.9,0.2-1.2,0.2c-0.4,0.1-0.8,0.1-1.3,0.1C351.5,408,350.9,407.9,350.4,407.7z M352.6,404.1c0.3,0,0.4-0.1,0.6-0.2
				c0.1-0.1,0.2-0.3,0.2-0.5c0-0.4-0.1-0.6-0.3-0.8c-0.2-0.1-0.5-0.2-0.9-0.2c-0.3,0-0.5,0-0.7,0.1c-0.2,0.1-0.3,0.3-0.4,0.5
				c-0.1,0.2-0.1,0.6-0.1,1H352.6z"/>
		</g>
	</g>
	<circle class="st6" cx="307.2" cy="389.6" r="3"/>
</g>
</svg>
