<?xml version="1.0" encoding="utf-8"?>
<!-- Generator: Adobe Illustrator 25.2.3, SVG Export Plug-In . SVG Version: 6.00 Build 0)  -->
<svg version="1.1" id="Layer_1" xmlns="http://www.w3.org/2000/svg" xmlns:xlink="http://www.w3.org/1999/xlink" x="0px" y="0px"
	 viewBox="0 0 15 15" style="enable-background:new 0 0 15 15;" xml:space="preserve">
<style type="text/css">
	.st0{fill-rule:evenodd;clip-rule:evenodd;fill:#FFFFFF;}
</style>
<path class="st0" d="M3.9,7.5c0-2,1.6-3.6,3.6-3.6c2,0,3.6,1.6,3.6,3.6c0,2-1.6,3.6-3.6,3.6C5.5,11.1,3.9,9.5,3.9,7.5L3.9,7.5z
	 M11.2,0.5H3.8C2,0.5,0.5,2,0.5,3.8v7.3c0,1.8,1.5,3.3,3.3,3.3h7.3c1.8,0,3.3-1.5,3.3-3.3V3.8C14.5,2,13,0.5,11.2,0.5L11.2,0.5z
	 M3.8,1.4h7.3c1.4,0,2.5,1.1,2.5,2.5v7.3c0,1.4-1.1,2.5-2.5,2.5H3.8c-1.4,0-2.5-1.1-2.5-2.5V3.8C1.4,2.5,2.5,1.4,3.8,1.4L3.8,1.4z
	 M11.9,2.4c-0.4,0-0.7,0.3-0.7,0.7c0,0.4,0.3,0.7,0.7,0.7c0.4,0,0.7-0.3,0.7-0.7C12.6,2.7,12.3,2.4,11.9,2.4L11.9,2.4z M12,7.5
	C12,5,10,3,7.5,3C5,3,3,5,3,7.5C3,10,5,12,7.5,12C10,12,12,10,12,7.5L12,7.5z"/>
</svg>
